<svg id="Capa_1" enable-background="new 0 0 512 512" height="512" viewBox="0 0 512 512" width="512" xmlns="http://www.w3.org/2000/svg"><g><g><path d="m277.806 137.368c-13.009-9.246-30.603-9.246-43.612 0-41.553 29.534-69.494 84.585-69.494 147.622 0 1.313.012 2.622.036 3.928 2.659 143.987 179.868 143.987 182.527 0 .024-1.306.036-2.615.036-3.928.001-63.037-27.94-118.088-69.493-147.622z" fill="#71dbba"/><path d="m288.682 297.865-17.261 10.803v-28.291l33.624-21.043c7.219-4.518 9.409-14.033 4.89-21.253-4.518-7.219-14.03-9.411-21.253-4.891l-17.261 10.803v-31.918c0-8.517-6.904-15.421-15.421-15.421s-15.421 6.904-15.421 15.421v31.918l-17.261-10.803c-7.218-4.517-16.734-2.329-21.253 4.891-4.518 7.219-2.328 16.734 4.891 21.253l33.623 21.042v28.292l-17.261-10.803c-7.218-4.519-16.734-2.329-21.253 4.89-4.518 7.219-2.328 16.735 4.891 21.253l33.623 21.043v96.693c0 8.517 6.904 15.421 15.421 15.421s15.421-6.904 15.421-15.421v-96.693l33.624-21.043c7.219-4.518 9.409-14.033 4.89-21.253-4.518-7.217-14.031-9.411-21.253-4.89z" fill="#30cc9b"/><circle cx="67.383" cy="96.652" fill="#fce29f" r="59.883"/><circle cx="444.617" cy="415.348" fill="#7de2ff" r="59.883"/><circle cx="67.383" cy="415.348" fill="#ff8d9d" r="59.883"/><circle cx="444.617" cy="96.652" fill="#696eb1" r="59.883"/><path d="m95.84 135.123c-33.562 0-60.769-27.207-60.769-60.769 0-12.27 3.648-23.681 9.902-33.233-21.967 8.874-37.473 30.385-37.473 55.531 0 33.072 26.81 59.883 59.883 59.883 19.975 0 37.653-9.79 48.532-24.822-6.286 2.2-13.038 3.41-20.075 3.41z" fill="#ffcd71"/><path d="m95.84 453.819c-33.562 0-60.769-27.207-60.769-60.769 0-12.27 3.648-23.681 9.902-33.233-21.967 8.874-37.473 30.385-37.473 55.531 0 33.072 26.81 59.883 59.883 59.883 19.975 0 37.653-9.79 48.532-24.822-6.286 2.2-13.038 3.41-20.075 3.41z" fill="#ed6f71"/><path d="m473.074 453.819c-33.562 0-60.769-27.207-60.769-60.769 0-12.27 3.648-23.681 9.902-33.233-21.966 8.874-37.473 30.385-37.473 55.531 0 33.072 26.81 59.883 59.883 59.883 19.975 0 37.653-9.79 48.532-24.822-6.286 2.2-13.037 3.41-20.075 3.41z" fill="#2ecffb"/><path d="m473.074 135.122c-33.562 0-60.769-27.207-60.769-60.769 0-12.27 3.648-23.681 9.902-33.233-21.966 8.874-37.473 30.385-37.473 55.531 0 33.072 26.81 59.883 59.883 59.883 19.975 0 37.653-9.79 48.532-24.822-6.286 2.2-13.037 3.41-20.075 3.41z" fill="#4c5698"/></g><g><path d="m134.337 422.848h34.405c1.989 0 3.897-.791 5.303-2.197l31.45-31.449c8.483 5.572 17.788 9.725 27.584 12.263v40.279c0 12.639 10.282 22.921 22.921 22.921s22.921-10.282 22.921-22.921v-40.254c9.931-2.545 19.221-6.665 27.657-12.216l31.376 31.376c1.406 1.407 3.314 2.197 5.303 2.197h34.405c3.744 33.636 32.336 59.882 66.955 59.882 37.155 0 67.382-30.228 67.382-67.382 0-37.155-30.228-67.383-67.382-67.383-34.619 0-63.211 26.246-66.955 59.883h-31.298l-27.878-27.878c7.803-7.173 14.582-15.788 20.099-25.678 2.018-3.617.721-8.186-2.896-10.204-3.618-2.018-8.186-.721-10.204 2.896-5.969 10.701-13.651 19.63-22.626 26.504-.114.086-.226.173-.335.267-7.125 5.396-15.06 9.499-23.603 12.156v-36.706l30.102-18.839c10.739-6.72 13.991-20.849 7.269-31.59-6.641-10.614-20.8-14.028-31.589-7.268l-5.782 3.619v-10.596l30.103-18.839c10.81-6.759 13.911-20.971 7.269-31.589-6.694-10.696-20.856-13.986-31.589-7.27l-5.782 3.619v-18.376c0-12.592-10.23-22.921-22.92-22.921-12.639 0-22.921 10.282-22.921 22.921v18.375l-5.782-3.618s-.001 0-.001-.001c-10.774-6.739-24.925-3.374-31.588 7.271-6.704 10.713-3.443 24.884 7.27 31.589l30.102 18.839v10.596c-.1-.063-6.169-3.861-5.781-3.618-10.728-6.712-24.86-3.482-31.59 7.27-6.492 10.373-3.78 24.672 7.27 31.589l30.102 18.839v36.687c-15.101-4.752-28.651-14.184-38.81-27.161-12.851-16.418-22.069-40.497-22.069-73.74 0-23.149 3.866-45.546 11.491-66.568 1.412-3.894-.6-8.195-4.494-9.607-3.892-1.413-8.195.599-9.608 4.493-8.221 22.667-12.389 46.784-12.389 71.683 0 36.859 10.484 64.113 25.257 82.986 3.39 4.33 7.112 8.315 11.098 11.952l-27.92 27.92h-31.298c-3.743-33.637-32.336-59.883-66.955-59.883-37.158-.002-67.386 30.225-67.386 67.38 0 37.154 30.228 67.382 67.383 67.382 34.618.001 63.211-26.245 66.954-59.882zm310.281-59.882c28.884 0 52.382 23.499 52.382 52.383s-23.499 52.382-52.382 52.382-52.383-23.499-52.383-52.382 23.499-52.383 52.383-52.383zm-143.552-109.99-33.624 21.042c-2.19 1.371-3.521 3.773-3.521 6.358v28.292c0 5.879 6.49 9.48 11.479 6.357l17.261-10.803c.004-.002.008-.004.011-.007 3.764-2.341 8.62-1.123 10.904 2.519 2.323 3.711 1.2 8.593-2.512 10.916l-33.624 21.043c-2.19 1.371-3.521 3.773-3.521 6.358v96.693c0 4.368-3.553 7.921-7.921 7.921s-7.921-3.553-7.921-7.921c0-8.834 0-86.391 0-96.693 0-2.584-1.331-4.986-3.521-6.357l-33.623-21.043c-3.402-2.118-4.651-6.463-2.97-10.063.024-.05.042-.103.067-.153 2.086-4.232 7.354-5.679 11.297-3.217.003.002.006.003.009.005 1.666 1.043 15.594 9.76 17.261 10.803 4.842 3.031 11.479-.316 11.479-6.357v-28.292c0-2.584-1.331-4.986-3.521-6.357l-33.623-21.042c-3.672-2.299-4.895-7.24-2.436-11.026 2.379-3.664 7.227-4.668 10.84-2.402.537.336 16.677 10.438 17.261 10.803 4.973 3.111 11.479-.445 11.479-6.358v-31.917c0-4.368 3.553-7.921 7.921-7.921 4.381 0 7.921 3.567 7.921 7.921v31.917c0 5.946 6.556 9.435 11.479 6.357l17.261-10.803c3.702-2.316 8.599-1.19 10.917 2.513 2.312 3.687 1.224 8.572-2.509 10.914zm-286.066 162.372c0-28.884 23.499-52.383 52.383-52.383s52.382 23.499 52.382 52.383-23.499 52.382-52.382 52.382-52.383-23.498-52.383-52.382z"/><path d="m377.663 104.152c3.744 33.636 32.336 59.882 66.955 59.882 37.155 0 67.382-30.228 67.382-67.382 0-37.155-30.228-67.383-67.382-67.383-34.619 0-63.211 26.246-66.955 59.883h-34.405c-1.989 0-3.897.79-5.303 2.196l-46.84 46.84c-2.917-2.434-5.901-4.757-8.963-6.934-15.641-11.117-36.66-11.118-52.302 0-3.055 2.171-6.039 4.496-8.96 6.938l-46.844-46.844c-1.406-1.406-3.314-2.196-5.303-2.196h-34.405c-3.743-33.637-32.336-59.883-66.955-59.883-37.155 0-67.383 30.228-67.383 67.383 0 37.154 30.228 67.382 67.383 67.382 34.619 0 63.211-26.246 66.955-59.882h31.298l44.213 44.212c-10.552 10.723-19.894 23.237-27.583 37.048-2.015 3.619-.715 8.187 2.904 10.201 3.62 2.016 8.187.714 10.201-2.904 11.179-20.079 26.106-37.102 43.168-49.229 10.443-7.424 24.478-7.423 34.921 0 40.92 29.085 66.34 83.308 66.34 141.51 0 12.229-1.161 24.148-4.153 36.008-1.014 4.017 1.421 8.094 5.438 9.107 4.03 1.016 8.097-1.435 9.106-5.438 3.296-13.065 4.609-26.202 4.609-39.678 0-31.546-6.883-62.537-19.905-89.624-8.594-17.876-19.715-33.784-32.74-47.005l44.209-44.208zm66.955-59.883c28.884 0 52.382 23.499 52.382 52.383s-23.499 52.382-52.382 52.382-52.383-23.499-52.383-52.382 23.499-52.383 52.383-52.383zm-377.235 104.765c-28.884 0-52.383-23.498-52.383-52.382s23.499-52.383 52.383-52.383 52.382 23.499 52.382 52.383-23.498 52.382-52.382 52.382z"/></g></g></svg>