<?xml version="1.0" encoding="utf-8"?>
<!-- Generator: Adobe Illustrator 23.0.4, SVG Export Plug-In . SVG Version: 6.00 Build 0)  -->
<svg version="1.1" id="Layer_1" xmlns="http://www.w3.org/2000/svg" xmlns:xlink="http://www.w3.org/1999/xlink" x="0px" y="0px"
	 viewBox="0 0 512 512" style="enable-background:new 0 0 512 512;" xml:space="preserve">
<style type="text/css">
	.st0{fill:#4BA5E2;stroke:#111111;stroke-width:10.8537;stroke-linecap:round;stroke-linejoin:round;stroke-miterlimit:10;}
	.st1{fill:#FFFFFF;stroke:#111111;stroke-width:10.8537;stroke-linecap:round;stroke-linejoin:round;stroke-miterlimit:10;}
	.st2{fill:none;stroke:#111111;stroke-width:10.8537;stroke-linecap:round;stroke-linejoin:round;stroke-miterlimit:10;}
	.st3{fill:#77B9E5;stroke:#111111;stroke-width:10.8537;stroke-linecap:round;stroke-linejoin:round;stroke-miterlimit:10;}
	.st4{fill:#6DD18B;stroke:#111111;stroke-width:10.8537;stroke-linecap:round;stroke-linejoin:round;stroke-miterlimit:10;}
	.st5{fill:#51D14E;stroke:#111111;stroke-width:10.8537;stroke-linecap:round;stroke-linejoin:round;stroke-miterlimit:10;}
</style>
<g>
	<path class="st0" d="M236.8,402.9v10.9c0,6,4.9,10.9,10.9,10.9h16.3c6,0,10.9-4.9,10.9-10.9v-10.9H236.8z"/>
	<g>
		<path class="st1" d="M255.8,88.1c-68.9,0-119.4,55.9-119.4,124.8c0,76,76,92.3,76,124.8V354h86.8v-16.3c0-32.6,76-48.8,76-124.8
			C375.2,144,324.7,88.1,255.8,88.1z"/>
		<path class="st2" d="M311.3,285.7c-15.2,13.2-30.9,26.9-33.4,46.7"/>
		<path class="st2" d="M255.8,109.8c55.7,0,97.7,44.3,97.7,103.1"/>
		<path class="st3" d="M212.4,392c0,6,4.9,10.9,10.9,10.9h65.1c6,0,10.9-4.9,10.9-10.9v-38h-86.8V392z"/>
	</g>
	<line class="st2" x1="234.1" y1="115.3" x2="234.1" y2="115.3"/>
	<line class="st2" x1="326.4" y1="272.6" x2="326.4" y2="272.6"/>
	<path class="st4" d="M212.4,229.2c12,0,21.7,9.7,21.7,21.7v21.7h-21.7c-12,0-21.7-9.7-21.7-21.7v-21.7
		C190.7,229.2,196.9,229.2,212.4,229.2z"/>
	<path class="st5" d="M293.8,175c-12,0-21.7,9.7-21.7,21.7v21.7h21.7c12,0,21.7-9.7,21.7-21.7V175C315.5,175,309.3,175,293.8,175z"
		/>
	<path class="st2" d="M217.8,256.4l34.2,34.2c2.1,2.1,3.8,6.3,3.8,9.3"/>
	<path class="st2" d="M288.4,202.1l-28.7,28.7c-2.1,2.1-3.8,6.3-3.8,9.3v114"/>
	<line class="st2" x1="299.2" y1="375.8" x2="255.8" y2="375.8"/>
	<line class="st2" x1="234.1" y1="375.8" x2="234.1" y2="375.8"/>
</g>
</svg>
