<svg height="512pt" viewBox="0 0 512 512.00115" width="512pt" xmlns="http://www.w3.org/2000/svg"><g fill="#acd670"><path d="m283.511719 265.742188c9.890625-1.941407 20.597656-5.925782 28.648437-13.828126 17.132813-16.8125 16.144532-46.34375 15.554688-54.164062-9.59375 2.140625-19.953125 6.25-27.878906 14.023438-17.628907 17.304687-16.75 47.417968-16.324219 53.96875zm0 0"/><path d="m457.515625 265.742188c9.886719-1.941407 20.597656-5.925782 28.648437-13.828126 17.128907-16.8125 16.144532-46.34375 15.550782-54.164062-9.589844 2.140625-19.949219 6.25-27.878906 14.023438-17.628907 17.304687-16.746094 47.417968-16.320313 53.96875zm0 0"/><path d="m109.648438 265.742188c9.886718-1.941407 20.59375-5.925782 28.648437-13.828126 17.128906-16.8125 16.140625-46.34375 15.550781-54.164062-9.589844 2.140625-19.949218 6.25-27.878906 14.023438-17.628906 17.304687-16.75 47.417968-16.320312 53.96875zm0 0"/><path d="m283.511719 451.257812c9.890625-1.941406 20.597656-5.925781 28.648437-13.832031 17.132813-16.808593 16.144532-46.339843 15.554688-54.160156-9.59375 2.140625-19.953125 6.25-27.878906 14.023437-17.628907 17.304688-16.75 47.417969-16.324219 53.96875zm0 0"/><path d="m457.515625 451.257812c9.886719-1.941406 20.597656-5.925781 28.648437-13.832031 17.128907-16.808593 16.144532-46.339843 15.550782-54.160156-9.589844 2.140625-19.949219 6.25-27.878906 14.023437-17.628907 17.304688-16.746094 47.417969-16.320313 53.96875zm0 0"/><path d="m109.648438 451.257812c9.886718-1.941406 20.59375-5.925781 28.648437-13.832031 17.128906-16.808593 16.140625-46.339843 15.550781-54.160156-9.589844 2.140625-19.949218 6.25-27.878906 14.023437-17.628906 17.304688-16.75 47.417969-16.320312 53.96875zm0 0"/><path d="m283.511719 80.226562c9.890625-1.941406 20.597656-5.925781 28.648437-13.828124 17.132813-16.8125 16.144532-46.34375 15.554688-54.160157-9.59375 2.136719-19.953125 6.246094-27.878906 14.023438-17.628907 17.300781-16.75 47.414062-16.324219 53.964843zm0 0"/><path d="m457.515625 80.226562c9.886719-1.941406 20.597656-5.925781 28.648437-13.828124 17.128907-16.8125 16.144532-46.34375 15.550782-54.160157-9.589844 2.136719-19.949219 6.246094-27.878906 14.023438-17.628907 17.300781-16.746094 47.414062-16.320313 53.964843zm0 0"/><path d="m109.648438 80.226562c9.886718-1.941406 20.59375-5.925781 28.648437-13.828124 17.128906-16.8125 16.140625-46.34375 15.550781-54.160157-9.589844 2.136719-19.949218 6.246094-27.878906 14.023438-17.628906 17.300781-16.75 47.414062-16.320312 53.964843zm0 0"/><path d="m239.464844 211.777344c-7.949219-7.800782-18.34375-11.910156-27.960938-14.042969-.589844 7.789063-1.589844 37.355469 15.550782 54.179687 8.074218 7.925782 18.820312 11.90625 28.730468 13.847657.429688-6.519531 1.324219-36.667969-16.320312-53.984375zm0 0"/><path d="m413.46875 211.777344c-7.949219-7.800782-18.347656-11.910156-27.960938-14.042969-.589843 7.789063-1.59375 37.355469 15.550782 54.179687 8.074218 7.925782 18.820312 11.90625 28.730468 13.847657.425782-6.519531 1.324219-36.667969-16.320312-53.984375zm0 0"/><path d="m65.601562 211.777344c-7.949218-7.800782-18.347656-11.910156-27.960937-14.042969-.589844 7.789063-1.59375 37.355469 15.550781 54.179687 8.074219 7.925782 18.820313 11.90625 28.730469 13.847657.425781-6.519531 1.320313-36.667969-16.320313-53.984375zm0 0"/><path d="m239.464844 397.292969c-7.949219-7.800781-18.34375-11.914063-27.960938-14.046875-.589844 7.792968-1.589844 37.359375 15.550782 54.179687 8.074218 7.925781 18.820312 11.910157 28.730468 13.847657.429688-6.515626 1.324219-36.667969-16.320312-53.980469zm0 0"/><path d="m413.46875 397.292969c-7.949219-7.800781-18.347656-11.914063-27.960938-14.046875-.589843 7.792968-1.59375 37.359375 15.550782 54.179687 8.074218 7.925781 18.820312 11.910157 28.730468 13.847657.425782-6.515626 1.324219-36.667969-16.320312-53.980469zm0 0"/><path d="m65.601562 397.292969c-7.949218-7.800781-18.347656-11.914063-27.960937-14.046875-.589844 7.792968-1.59375 37.359375 15.550781 54.179687 8.074219 7.925781 18.820313 11.910157 28.730469 13.847657.425781-6.515626 1.320313-36.667969-16.320313-53.980469zm0 0"/><path d="m239.464844 26.261719c-7.949219-7.800781-18.34375-11.910157-27.960938-14.042969-.589844 7.789062-1.589844 37.355469 15.550782 54.179688 8.074218 7.925781 18.820312 11.910156 28.730468 13.847656.429688-6.515625 1.324219-36.667969-16.320312-53.984375zm0 0"/><path d="m413.46875 26.261719c-7.949219-7.800781-18.347656-11.910157-27.960938-14.042969-.589843 7.789062-1.59375 37.355469 15.550782 54.179688 8.074218 7.925781 18.820312 11.910156 28.730468 13.847656.425782-6.515625 1.324219-36.667969-16.320312-53.984375zm0 0"/><path d="m65.601562 26.261719c-7.949218-7.800781-18.347656-11.910157-27.960937-14.042969-.589844 7.789062-1.59375 37.355469 15.550781 54.179688 8.074219 7.925781 18.820313 11.910156 28.730469 13.847656.425781-6.515625 1.324219-36.667969-16.320313-53.984375zm0 0"/></g><path d="m10.136719 492h-.136719c-5.523438 0-10 4.476562-10 10s4.476562 10 10 10h.136719c5.523437 0 10-4.476562 10-10s-4.476563-10-10-10zm0 0"/><path d="m501.96875 492h-61.980469v-27.097656c13.714844-.125 37.324219-2.851563 53.179688-18.414063 21.710937-21.308593 18.960937-58 18.355469-63.917969-.144532-2.207031-1.015626-4.378906-2.632813-6.128906-1.785156-1.933594-4.15625-3.003906-6.59375-3.1875-4.910156-.441406-40.703125-2.847656-62.792969 18.824219-3.894531 3.820313-7.023437 8.089844-9.539062 12.5625-2.503906-4.488281-5.621094-8.761719-9.492188-12.566406-21.964844-21.542969-57.472656-19.289063-62.675781-18.828125-2.34375.148437-4.644531 1.117187-6.4375 2.910156-1.765625 1.765625-2.734375 4.035156-2.898437 6.347656-.589844 5.660156-3.46875 42.574219 18.347656 63.984375 15.855468 15.5625 39.464844 18.289063 53.179687 18.414063v27.101562h-154.003906v-27.101562c13.71875-.125 37.328125-2.851563 53.183594-18.414063 21.707031-21.308593 18.957031-58 18.355469-63.917969-.144532-2.207031-1.019532-4.378906-2.632813-6.128906-1.789063-1.933594-4.160156-3.003906-6.59375-3.1875-4.910156-.445312-40.703125-2.847656-62.796875 18.824219-3.882812 3.8125-7.007812 8.097656-9.515625 12.597656-2.507813-4.5-5.632813-8.789062-9.515625-12.601562-22-21.582031-57.59375-19.285157-62.703125-18.828125-2.464844.164062-4.875 1.238281-6.683594 3.195312-1.582031 1.714844-2.453125 3.835938-2.621093 6-.566407 5.429688-3.550782 42.558594 18.34375 64.046875 15.855468 15.5625 39.464843 18.289063 53.179687 18.414063v27.097656h-153.867187v-27.097656c13.71875-.125 37.328124-2.851563 53.183593-18.414063 21.710938-21.308593 18.957031-58 18.355469-63.917969-.144531-2.207031-1.015625-4.378906-2.632812-6.128906-1.785157-1.933594-4.160157-3.003906-6.59375-3.1875-4.910157-.441406-40.703126-2.847656-62.792969 18.824219-3.886719 3.8125-7.007813 8.097656-9.515625 12.601563-2.507813-4.503907-5.632813-8.789063-9.519532-12.601563-22-21.582031-57.59375-19.289063-62.703124-18.832031-2.464844.167968-4.875 1.238281-6.683594 3.195312-1.582032 1.71875-2.449219 3.839844-2.617188 6-.5703122 5.429688-3.550781 42.5625 18.339844 64.046875 15.859375 15.5625 39.464844 18.289063 53.183594 18.414063v27.101562h-32.136719c-5.523437 0-10 4.476563-10 9.996094 0 5.523438 4.476563 10 10 10h461.984375c5.523438 0 10-4.476562 10-10 0-5.519531-4.476562-10-10-10zm-48.460938-85.648438c10.851563-10.644531 28.117188-12.953124 38.464844-13.304687-.074218 10.640625-1.96875 28.527344-12.8125 39.167969-10.867187 10.667968-28.617187 12.582031-39.128906 12.683594.390625-11.371094 3.230469-28.488282 13.476562-38.546876zm-72.691406 25.863282c-9.972656-9.785156-12.722656-26.90625-12.839844-39.171875 10.328126.351562 27.625 2.652343 38.488282 13.308593 10.242187 10.054688 13.085937 27.152344 13.476562 38.523438-10.53125-.132812-28.335937-2.070312-39.125-12.660156zm-101.3125-25.863282c10.851563-10.644531 28.117188-12.953124 38.464844-13.304687-.070312 10.640625-1.96875 28.527344-12.8125 39.167969-10.867188 10.667968-28.617188 12.582031-39.125 12.683594.386719-11.371094 3.222656-28.484376 13.472656-38.546876zm-72.691406 25.863282c-10.84375-10.640625-12.738281-28.53125-12.8125-39.171875 10.332031.355469 27.605469 2.664062 38.460938 13.308593 10.242187 10.054688 13.085937 27.152344 13.476562 38.523438-10.527344-.132812-28.335938-2.070312-39.125-12.660156zm-101.171875-25.863282c10.851563-10.644531 28.117187-12.953124 38.460937-13.304687-.070312 10.640625-1.96875 28.527344-12.8125 39.167969-10.867187 10.667968-28.613281 12.582031-39.125 12.683594.386719-11.371094 3.226563-28.484376 13.476563-38.546876zm-72.695313 25.863282c-10.84375-10.640625-12.738281-28.53125-12.808593-39.171875 10.328125.355469 27.605469 2.664062 38.460937 13.308593 10.25 10.0625 13.089844 27.175782 13.476563 38.546876-10.511719-.105469-28.261719-2.019532-39.128907-12.683594zm0 0"/><path d="m501.96875 305.523438h-.136719c-5.523437 0-10 4.476562-10 10 0 5.523437 4.476563 10 10 10h.136719c5.523438 0 10-4.476563 10-10 0-5.523438-4.476562-10-10-10zm0 0"/><path d="m10 325.523438h461.984375c5.523437 0 10-4.476563 10-10 0-5.523438-4.476563-10-10-10h-31.996094v-27.097657c13.714844-.125 37.324219-2.851562 53.179688-18.414062 21.710937-21.308594 18.960937-58 18.355469-63.917969-.144532-2.207031-1.015626-4.378906-2.632813-6.128906-1.785156-1.933594-4.15625-3.003906-6.59375-3.1875-4.90625-.441406-40.703125-2.847656-62.792969 18.824218-3.894531 3.820313-7.023437 8.089844-9.539062 12.554688-2.503906-4.484375-5.621094-8.757812-9.492188-12.558594-21.964844-21.542968-57.472656-19.289062-62.675781-18.828125-2.34375.148438-4.644531 1.117188-6.4375 2.90625-1.765625 1.769531-2.734375 4.035157-2.898437 6.351563-.589844 5.660156-3.472657 42.570312 18.347656 63.984375 15.855468 15.5625 39.464844 18.289062 53.179687 18.414062v27.097657h-154.003906v-27.097657c13.71875-.125 37.328125-2.851562 53.183594-18.414062 21.710937-21.308594 18.957031-58 18.355469-63.917969-.144532-2.207031-1.019532-4.378906-2.632813-6.128906-1.789063-1.933594-4.160156-3.003906-6.597656-3.1875-4.90625-.441406-40.699219-2.847656-62.792969 18.824218-3.882812 3.808594-7.007812 8.09375-9.515625 12.59375-2.507813-4.5-5.632813-8.785156-9.515625-12.597656-22-21.582031-57.59375-19.285156-62.703125-18.828125-2.464844.164063-4.875 1.238281-6.683594 3.195313-1.582031 1.714844-2.453125 3.835937-2.621093 6-.566407 5.433594-3.550782 42.558594 18.34375 64.042968 15.855468 15.566407 39.464843 18.292969 53.179687 18.417969v27.097657h-153.867187v-27.097657c13.71875-.125 37.328124-2.855469 53.183593-18.417969 21.710938-21.304687 18.957031-57.996093 18.355469-63.914062-.144531-2.207031-1.015625-4.378906-2.632812-6.128906-1.785157-1.933594-4.160157-3.003906-6.59375-3.1875-4.90625-.445313-40.703126-2.847656-62.792969 18.820312-3.886719 3.8125-7.007813 8.097656-9.515625 12.597656-2.507813-4.5-5.632813-8.785156-9.515625-12.597656-22.003907-21.582031-57.59375-19.285156-62.703125-18.828125-2.46875.164063-4.875 1.238281-6.683594 3.195313-1.585938 1.714844-2.453125 3.835937-2.621094 6-.5703122 5.429687-3.550781 42.558594 18.339844 64.042968 15.859375 15.5625 39.46875 18.292969 53.183594 18.414063v27.101563h-62.121094c-5.523438 0-10 4.476562-10 10 0 5.519531 4.476562 10 10 10zm443.507812-105.648438c10.851563-10.644531 28.117188-12.953125 38.464844-13.304688-.074218 10.636719-1.96875 28.527344-12.8125 39.167969-10.867187 10.667969-28.617187 12.582031-39.128906 12.683594.390625-11.371094 3.230469-28.488281 13.476562-38.546875zm-72.691406 25.863281c-9.972656-9.785156-12.722656-26.90625-12.839844-39.171875 10.328126.351563 27.625 2.652344 38.488282 13.308594 10.242187 10.054688 13.085937 27.152344 13.476562 38.523438-10.53125-.132813-28.335937-2.070313-39.125-12.660157zm-101.3125-25.863281c10.855469-10.644531 28.121094-12.953125 38.464844-13.304688-.074219 10.636719-1.96875 28.527344-12.8125 39.167969-10.867188 10.667969-28.617188 12.582031-39.125 12.683594.386719-11.367187 3.222656-28.484375 13.472656-38.546875zm-72.691406 25.863281c-10.84375-10.640625-12.742188-28.53125-12.8125-39.171875 10.332031.355469 27.609375 2.660156 38.460938 13.308594 10.242187 10.054688 13.085937 27.152344 13.476562 38.523438-10.527344-.132813-28.335938-2.070313-39.125-12.660157zm-101.171875-25.863281c10.851563-10.644531 28.117187-12.953125 38.460937-13.304688-.070312 10.636719-1.964843 28.527344-12.808593 39.167969-10.867188 10.667969-28.617188 12.582031-39.128907 12.683594.386719-11.367187 3.226563-28.484375 13.476563-38.546875zm-72.695313 25.863281c-10.84375-10.640625-12.738281-28.53125-12.808593-39.171875 10.332031.355469 27.605469 2.660156 38.460937 13.308594 10.25 10.0625 13.089844 27.179688 13.476563 38.546875-10.511719-.101563-28.261719-2.019531-39.128907-12.683594zm0 0"/><path d="m10 139.046875h.136719c5.523437 0 10-4.476563 10-10s-4.476563-10-10-10h-.136719c-5.523438 0-10 4.476563-10 10s4.476562 10 10 10zm0 0"/><path d="m72.121094 91.949219v27.097656h-32.136719c-5.523437 0-10 4.476563-10 10s4.476563 10 10 10h42.125.011719.007812 173.847656.007813.011719 173.984375.007812.011719 71.972656c5.523438 0 10-4.476563 10-10s-4.476562-10-10-10h-61.984375v-27.097656c13.71875-.125 37.328125-2.851563 53.183594-18.414063 21.710937-21.308594 18.957031-58.007812 18.355469-63.917968-.15625-2.335938-1.125-4.628907-2.910156-6.417969-1.765626-1.765625-4.03125-2.730469-6.34375-2.898438-4.996094-.449219-40.710938-2.8125-62.769532 18.824219-3.894531 3.820312-7.019531 8.089844-9.535156 12.5625-2.507812-4.488281-5.621094-8.765625-9.496094-12.566406-21.941406-21.519532-57.398437-19.296875-62.660156-18.828125-2.21875.136719-4.40625 1.007812-6.164062 2.632812-1.941407 1.792969-3.011719 4.171875-3.1875 6.617188-.585938 5.628906-3.480469 42.570312 18.34375 63.992187 15.859374 15.5625 39.464843 18.289063 53.183593 18.414063v27.097656h-154.003906v-27.097656c13.71875-.125 37.328125-2.851563 53.183594-18.414063 21.710937-21.308594 18.957031-58.007812 18.351562-63.917968-.152343-2.335938-1.121093-4.628907-2.90625-6.414063-1.769531-1.769531-4.03125-2.734375-6.34375-2.902344-5-.449219-40.710937-2.8125-62.769531 18.824219-3.882812 3.8125-7.007812 8.097656-9.515625 12.601562-2.507813-4.503906-5.632813-8.789062-9.515625-12.605468-21.941406-21.523438-57.402344-19.292969-62.660156-18.828125-2.347656.144531-4.65625 1.113281-6.453125 2.910156-1.765625 1.765625-2.730469 4.027344-2.898438 6.339844-.582031 5.609375-3.476562 42.574219 18.347657 63.992187 15.855468 15.5625 39.464843 18.289063 53.179687 18.414063v27.097656h-153.867187v-27.097656c13.71875-.125 37.328124-2.851563 53.183593-18.414063 21.710938-21.308594 18.957031-58.007812 18.355469-63.917968-.152344-2.335938-1.125-4.628907-2.910156-6.414063-1.765625-1.769531-4.03125-2.734375-6.339844-2.902344-5-.449219-40.714844-2.8125-62.769531 18.824219-3.886719 3.8125-7.007813 8.097656-9.515625 12.601562-2.507813-4.503906-5.632813-8.789062-9.519532-12.601562-21.941406-21.527344-57.402343-19.296875-62.660156-18.832031-2.347656.144531-4.65625 1.113281-6.449218 2.910156-1.765626 1.765625-2.734376 4.027344-2.902344 6.339844-.5820315 5.609375-3.476563 42.574219 18.347656 63.992187 15.859375 15.5625 39.464844 18.289063 53.183594 18.414063zm381.386718-58.550781c10.851563-10.644532 28.117188-12.953126 38.464844-13.304688-.074218 10.636719-1.972656 28.527344-12.8125 39.167969-10.867187 10.664062-28.617187 12.578125-39.128906 12.683593.390625-11.371093 3.230469-28.488281 13.476562-38.546874zm-72.691406 25.863281c-9.972656-9.785157-12.722656-26.90625-12.839844-39.171875 10.328126.351562 27.625 2.652344 38.488282 13.308594 10.242187 10.054687 13.085937 27.152343 13.476562 38.519531-10.53125-.128907-28.335937-2.066407-39.125-12.65625zm-101.3125-25.863281c10.855469-10.644532 28.121094-12.953126 38.464844-13.304688-.074219 10.636719-1.96875 28.527344-12.8125 39.167969-10.867188 10.664062-28.617188 12.578125-39.125 12.683593.386719-11.371093 3.222656-28.484374 13.472656-38.546874zm-72.691406 25.863281c-10.84375-10.640625-12.738281-28.53125-12.8125-39.171875 10.332031.355468 27.605469 2.660156 38.460938 13.308594 10.242187 10.054687 13.085937 27.152343 13.476562 38.519531-10.527344-.128907-28.335938-2.066407-39.125-12.65625zm-101.171875-25.863281c10.851563-10.644532 28.117187-12.953126 38.460937-13.304688-.070312 10.636719-1.96875 28.527344-12.8125 39.167969-10.867187 10.664062-28.613281 12.578125-39.125 12.683593.386719-11.371093 3.226563-28.484374 13.476563-38.546874zm-47.042969 0c10.25 10.0625 13.089844 27.175781 13.476563 38.546874-10.511719-.105468-28.261719-2.019531-39.125-12.683593-10.84375-10.640625-12.742188-28.53125-12.8125-39.171875 10.332031.355468 27.605469 2.660156 38.460937 13.308594zm0 0"/></svg>