<svg height="512pt" viewBox="0 -76 512 512" width="512pt" xmlns="http://www.w3.org/2000/svg"><path d="m255.964844 273.601562c-25.09375 33.808594-26.082032 76.382813-26.082032 76.382813h-33.113281s4.195313-89.796875 39.195313-119.296875zm0 0" fill="#ef7159"/><path d="m362.28125 273.601562v51.449219c-6 3.816407-14.996094 24.929688-14.996094 24.929688h39.660156l16.125-28.792969-12.917968-70.5zm0 0" fill="#ef7159"/><path d="m451.914062 207.0625c0-59.066406-47.953124-106.953125-107.105468-106.953125h-146.984375c-52.65625 3.308594-99.527344-21.953125-99.527344-21.953125s-1.59375-1.234375-4.394531-2.800781l-7.585938 9.9375c-14.679687 19.234375-33.652344 34.773437-55.402344 45.378906l-7.917968 3.855469s-10.03125 15.578125-10.03125 36.683594c0 21.101562 10.03125 36.203124 10.03125 36.203124l94.175781 30.851563c7.21875 2.363281 12.699219 3.832031 20.277344 4.367187l19.785156 1.402344 3.953125 39.589844-7.207031 41.425781c-6 3.816407-15 24.933594-15 24.933594h57.789062l26.84375-86.074219c23.160157 9.226563 50.339844 14.539063 79.410157 14.539063 37.699218 0 60.429687-3.011719 87.128906-17.835938l-3.1875-17.425781 14.980468 81.863281c-6 3.816407-15 24.929688-15 24.929688h15.257813c6.003906-29.441407 14.714844-62.183594 25.53125-75.230469l5.890625-7.886719c11.546875-17.070312 18.289062-37.648437 18.289062-59.800781zm0 0" fill="#f9bd95"/><path d="m35.996094 170.972656c0-20.128906-5.820313-36.445312-13-36.445312-7.175782 0-12.996094 16.316406-12.996094 36.445312 0 20.125 5.820312 36.441406 12.996094 36.441406 7.179687 0 13-16.316406 13-36.441406zm0 0" fill="#ef7159"/><path d="m130.980469 118.261719c-6.066407 0-11 4.933593-11 10.996093 0 6.066407 4.933593 11 11 11 6.066406 0 11-4.933593 11-11 0-6.0625-4.933594-10.996093-11-10.996093zm0 0"/><path d="m444.625 107.585938c-19.871094-23.234376-48.804688-36.558594-79.375-36.558594-5.523438 0-10 4.476562-10 10 0 5.523437 4.476562 10 10 10 24.71875 0 48.109375 10.773437 64.175781 29.558594 1.980469 2.3125 4.78125 3.5 7.605469 3.5 2.296875 0 4.609375-.789063 6.492188-2.398438 4.199218-3.589844 4.691406-9.902344 1.101562-14.101562zm0 0"/><path d="m460.921875 133.582031c-.628906-1.324219-1.511719-2.449219-2.566406-3.34375-2.824219-2.425781-6.824219-3.140625-10.476563-1.546875-.746094.328125-1.457031.753906-2.113281 1.261719-1.011719.78125-1.847656 1.742187-2.480469 2.808594-.90625 1.515625-1.433594 3.300781-1.402344 5.214843.015626 1.324219.292969 2.664063.863282 3.945313.011718.023437.019531.050781.03125.074219.574218 1.332031 1.398437 2.46875 2.398437 3.390625 1.929688 1.800781 4.386719 2.648437 6.792969 2.648437 1.421875 0 2.824219-.296875 4.089844-.863281 5.023437-2.25 7.253906-8.199219 5.027344-13.234375-.050782-.121094-.105469-.238281-.164063-.355469zm0 0"/><path d="m500.6875 64.140625c7.296875-7.285156 11.3125-16.96875 11.3125-27.269531 0-10.304688-4.015625-19.988282-11.3125-27.273438-12.816406-12.796875-33.671875-12.796875-46.488281 0-10.875 10.863282-11.386719 27.023438-1.207031 38.421875 6.082031 6.816407 17.640624 8.695313 26.3125 4.277344 7.710937-3.925781 11.320312-11.804687 9.421874-20.5625-1.171874-5.398437-6.496093-8.824219-11.894531-7.652344-4.964843 1.078125-8.261719 5.667969-7.847656 10.597657-.476563-.003907-.960937-.078126-1.277344-.210938-2.945312-3.480469-2.726562-7.371094.625-10.714844 5.023438-5.019531 13.199219-5.019531 18.226563 0 3.507812 3.503906 5.441406 8.164063 5.441406 13.117188 0 4.957031-1.933594 9.613281-5.441406 13.121094-6.078125 6.066406-14.695313 8.683593-23.128906 7.050781-19.332032-14.066407-43.117188-22.382813-68.816407-22.382813h-146.980469c-.210937 0-.417968.003906-.625.019532-45.347656 2.84375-84.550781-16.414063-90.394531-19.441407-12.617187-9.109375-27.378906-14.136719-41.867187-13.457031-19.871094.929688-35.242188 12.613281-42.175782 32.0625-1.097656 3.082031-.621093 6.503906 1.28125 9.167969 1.902344 2.660156 4.960938 4.226562 8.253907 4.1875.171875-.003907.339843-.003907.511719-.003907 6.6875 0 12.335937 1.574219 17.101562 4.054688l-21.351562 27.976562c-13.664063 17.90625-31.585938 32.585938-51.832032 42.453126l-6.445312 3.140624c-4.777344.964844-11.3125 4.71875-15.699219 17.023438-2.832031 7.933594-4.390625 18.277344-4.390625 29.125 0 10.851562 1.558594 21.195312 4.386719 29.128906 4.664062 13.070313 11.746093 16.492188 16.574219 17.167969l93.097656 30.5c7.976562 2.613281 14.246094 4.242187 22.683594 4.839844l11.378906.808593 2.980468 29.84375-6.398437 36.757813c-6.097656 6.648437-11.773437 18.65625-14.921875 26.046875-1.316406 3.085938-.996094 6.628906.855469 9.433594 1.851562 2.800781 4.984375 4.484375 8.34375 4.484375h90.902343c5.429688 0 9.871094-4.335938 9.996094-9.765625.007813-.371094 1.0625-35.59375 20.570313-65.550782 13.800781 2.496094 28.113281 3.78125 42.574219 3.78125 19.03125 0 34.714843-.730468 49.257812-3.464843v35.851562c-5.820312 6.777344-11.171875 18.132813-14.195312 25.230469-1.316407 3.085938-.996094 6.632812.855468 9.433594 1.851563 2.800781 4.984375 4.484375 8.34375 4.484375h95.449219c5.039063 0 9.289063-3.75 9.917969-8.746094 3.574218-28.300781 16.386718-106.019531 32.585937-125.550781.109375-.132813.214844-.265625.316407-.402344l5.890624-7.890625c.089844-.121094.179688-.25.269532-.375 13.089844-19.347656 20.007812-41.964844 20.007812-65.40625 0-29.234375-10.796875-56-28.621094-76.523437 6.515626-2.21875 12.546876-5.910157 17.585938-10.945313zm-474.691406 106.828125c0 9.960938-1.476563 17.214844-3 21.757812-1.519532-4.542968-2.996094-11.796874-2.996094-21.757812 0-9.957031 1.476562-17.210938 2.996094-21.753906 1.523437 4.542968 3 11.796875 3 21.753906zm194.675781 169.015625h-12.816406c1.808593-14.882813 6.140625-42.5625 15.183593-65.589844 5.46875 2.070313 11.097657 3.925781 16.867188 5.550781-13.183594 22.996094-17.695312 47.015626-19.234375 60.039063zm147.183594-6.632813c2.761719-1.851562 4.425781-4.964843 4.425781-8.300781v-45.390625c3.472656-1.214844 6.9375-2.59375 10.429688-4.148437l8.464843 46.246093c-4.058593 5.03125-7.839843 12.125-10.707031 18.222657h-17.113281c1.847656-3.246094 3.496093-5.71875 4.5-6.628907zm107.417969-127.730468-5.605469 7.507812c-19.636719 24.039063-31.84375 99.757813-35.679688 126.851563h-30.984375c1.847656-3.25 3.488282-5.707031 4.511719-6.628907 3.300781-2.210937 4.980469-6.179687 4.265625-10.101562l-14.980469-81.863281c-.992187-5.433594-6.203125-9.027344-11.636719-8.035157-5.433593.992188-9.03125 6.203126-8.035156 11.636719l1.863282 10.179688c-22.765626 11.191406-43.433594 13.28125-75.96875 13.28125-25.035157 0-49.511719-4.171875-71.128907-12.082031 1.003907-1.605469 2.046875-3.140626 3.125-4.597657 3.292969-4.433593 2.367188-10.699219-2.070312-13.992187-4.433594-3.289063-10.695313-2.363282-13.988281 2.070312-21.15625 28.503906-28.890626 79.253906-31.261719 100.136719h-32.660157c1.847657-3.25 3.488282-5.710937 4.511719-6.632813 2.261719-1.515624 3.8125-3.894531 4.277344-6.585937l7.210937-41.425781c.152344-.894532.1875-1.804688.097657-2.707032l-3.953125-39.589843c-.484375-4.847657-4.386719-8.640625-9.242188-8.984375l-19.785156-1.398438c-6.445312-.457031-11.074219-1.671875-17.871094-3.898437l-79.675781-26.101563c.34375-.808594.675781-1.660156.996094-2.558594 2.832031-7.933593 4.390625-18.28125 4.390625-29.128906 0-10.851562-1.558594-21.195312-4.390625-29.128906-.582031-1.628906-1.203125-3.101562-1.847657-4.445312 21.203126-11.15625 39.972657-26.992188 54.507813-46.035157l20.28125-26.574219c6.257813 9.082032 8.503906 18.433594 8.679687 19.195313 1.046876 4.644531 5.171876 7.800781 9.746094 7.800781.71875 0 1.445313-.078125 2.175782-.238281 5.390624-1.195313 8.792968-6.539063 7.597656-11.929687-.121094-.535157-3.015625-13.285157-11.621094-25.929688-8.582031-12.617188-19.785156-20.894531-32.929688-24.46875 5.390626-5.523438 12.03125-7.203125 17.480469-7.460938 8.855469-.40625 19.445313 2.804688 29.023438 9.578126.3125.253906.640625.484374.988281.703124 7.644531 5.648438 14.570312 13.605469 19.339844 23.84375 2.332031 5.007813 8.28125 7.175782 13.289062 4.84375 5.003906-2.332031 7.171875-8.277343 4.84375-13.285156-.089844-.195312-.191406-.382812-.28125-.574218 15.191406 4.40625 34.085938 8.105468 54.769532 8.101562 3.378906 0 6.824218-.097656 10.289062-.308594h146.675781c53.542969 0 97.105469 43.492188 97.105469 96.953125.003906 19.351563-5.683594 38.023438-16.445312 54.007813zm0 0"/></svg>