<svg height="512pt" viewBox="0 0 512.00069 512" width="512pt" xmlns="http://www.w3.org/2000/svg"><path d="m254.335938 255.976562h23.664062v245.976563h-23.664062zm0 0" fill="#41a5a5"/><g fill="#acd670"><path d="m126.636719 350.003906c6.097656-1.175781 12.738281-3.605468 17.714843-8.492187 10.503907-10.308594 9.863282-28.441407 9.5-33.152344-5.917968 1.292969-12.339843 3.8125-17.242187 8.621094-10.808594 10.609375-10.234375 29.097656-9.972656 33.023437zm0 0"/><path d="m70.640625 472.152344c6.101563-1.175782 12.738281-3.605469 17.714844-8.492188 10.503906-10.308594 9.863281-28.441406 9.503906-33.152344-5.917969 1.296876-12.34375 3.8125-17.242187 8.621094-10.8125 10.609375-10.234376 29.097656-9.976563 33.023438zm0 0"/><path d="m182.632812 472.152344c6.097657-1.175782 12.734376-3.605469 17.710938-8.492188 10.503906-10.308594 9.863281-28.441406 9.503906-33.152344-5.917968 1.296876-12.339844 3.8125-17.242187 8.621094-10.808594 10.609375-10.234375 29.097656-9.972657 33.023438zm0 0"/><path d="m420.074219 350.003906c6.097656-1.175781 12.738281-3.605468 17.714843-8.492187 10.503907-10.308594 9.863282-28.441407 9.5-33.152344-5.917968 1.292969-12.339843 3.8125-17.242187 8.621094-10.808594 10.609375-10.234375 29.097656-9.972656 33.023437zm0 0"/><path d="m364.078125 472.152344c6.101563-1.175782 12.738281-3.605469 17.714844-8.492188 10.503906-10.308594 9.863281-28.441406 9.503906-33.152344-5.917969 1.296876-12.34375 3.8125-17.242187 8.621094-10.8125 10.609375-10.234376 29.097656-9.976563 33.023438zm0 0"/><path d="m476.066406 472.152344c6.101563-1.175782 12.738282-3.605469 17.714844-8.492188 10.503906-10.308594 9.863281-28.441406 9.503906-33.152344-5.917968 1.296876-12.339844 3.8125-17.242187 8.621094-10.808594 10.609375-10.234375 29.097656-9.976563 33.023438zm0 0"/><path d="m99.917969 316.980469c-4.96875-4.875-11.5-7.394531-17.488281-8.671875-.359376 4.632812-1.039063 22.859375 9.5 33.203125 5.042968 4.949219 11.792968 7.382812 17.960937 8.535156.257813-3.828125.878906-22.417969-9.972656-33.066406zm0 0"/><path d="m43.925781 439.128906c-4.972656-4.875-11.503906-7.394531-17.488281-8.671875-.359375 4.632813-1.042969 22.859375 9.496094 33.203125 5.046875 4.953125 11.792968 7.382813 17.960937 8.535156.257813-3.828124.878907-22.417968-9.96875-33.066406zm0 0"/><path d="m155.914062 439.128906c-4.96875-4.875-11.503906-7.394531-17.488281-8.671875-.359375 4.632813-1.042969 22.859375 9.496094 33.203125 5.046875 4.953125 11.796875 7.382813 17.960937 8.535156.261719-3.828124.878907-22.417968-9.96875-33.066406zm0 0"/><path d="m393.355469 316.980469c-4.96875-4.875-11.5-7.394531-17.488281-8.671875-.359376 4.632812-1.039063 22.859375 9.5 33.203125 5.042968 4.949219 11.792968 7.382812 17.960937 8.535156.257813-3.828125.878906-22.417969-9.972656-33.066406zm0 0"/><path d="m337.363281 439.128906c-4.972656-4.875-11.503906-7.394531-17.488281-8.671875-.363281 4.632813-1.042969 22.859375 9.496094 33.203125 5.046875 4.953125 11.792968 7.382813 17.960937 8.535156.261719-3.828124.878907-22.417968-9.96875-33.066406zm0 0"/><path d="m449.351562 439.128906c-4.96875-4.875-11.503906-7.394531-17.488281-8.671875-.359375 4.632813-1.042969 22.859375 9.496094 33.203125 5.046875 4.953125 11.796875 7.382813 17.960937 8.535156.261719-3.828124.878907-22.417968-9.96875-33.066406zm0 0"/></g><path d="m397.238281 422.757812c-1.789062-2.039062-4.226562-3.175781-6.734375-3.371093-3.347656-.292969-26.75-1.785157-41.421875 12.605469-1.125 1.105468-2.148437 2.269531-3.089843 3.46875-.945313-1.199219-1.96875-2.367188-3.09375-3.472657-14.644532-14.359375-37.988282-12.902343-41.347657-12.609375-2.53125.179688-5 1.320313-6.808593 3.378906-1.46875 1.671876-2.277344 3.699219-2.449219 5.761719-.539063 5.117188-2.039063 28.144531 12.359375 42.277344 9.324218 9.152344 22.1875 11.71875 31.339844 12.265625v18.886719c0 5.523437 4.476562 10 10 10 5.519531 0 9.996093-4.476563 9.996093-10v-18.886719c9.152344-.546875 22.015625-3.113281 31.339844-12.265625 14.308594-14.042969 12.917969-36.867187 12.371094-42.179687-.152344-2.097657-.964844-4.160157-2.460938-5.859376zm-78.578125 33.765626c-4.21875-4.140626-5.902344-11.070313-6.445312-16.96875 5.691406.6875 12.394531 2.507812 16.675781 6.710937 4.273437 4.195313 6.09375 10.953125 6.765625 16.695313-5.828125-.550782-12.714844-2.234376-16.996094-6.4375zm54.664063 0c-4.285157 4.203124-11.167969 5.886718-16.996094 6.4375.667969-5.742188 2.488281-12.5 6.761719-16.695313 4.28125-4.199219 10.972656-6.019531 16.679687-6.707031-.546875 5.894531-2.226562 12.824218-6.445312 16.964844zm0 0"/><path d="m511.691406 428.617188c-.15625-2.097657-.96875-4.160157-2.460937-5.859376-1.792969-2.039062-4.226563-3.175781-6.738281-3.371093-3.347657-.292969-26.75-1.785157-41.417969 12.605469-1.125 1.105468-2.148438 2.269531-3.09375 3.46875-.941407-1.199219-1.964844-2.367188-3.09375-3.472657-14.640625-14.359375-37.988281-12.902343-41.34375-12.609375-2.535157.179688-5 1.320313-6.808594 3.378906-1.46875 1.671876-2.28125 3.699219-2.453125 5.761719-.535156 5.117188-2.039062 28.144531 12.359375 42.277344 9.328125 9.152344 22.191406 11.71875 31.339844 12.265625v18.886719c0 5.523437 4.476562 10 10 10 5.523437 0 10-4.476563 10-10v-18.886719c9.152343-.546875 22.015625-3.113281 31.339843-12.265625 14.304688-14.042969 12.917969-36.867187 12.371094-42.179687zm-81.042968 27.90625c-4.21875-4.140626-5.902344-11.070313-6.445313-16.96875 5.691406.6875 12.394531 2.507812 16.675781 6.710937 4.277344 4.195313 6.097656 10.953125 6.765625 16.695313-5.828125-.550782-12.710937-2.234376-16.996093-6.4375zm54.664062 0c-4.285156 4.203124-11.167969 5.886718-16.996094 6.4375.667969-5.742188 2.488282-12.5 6.761719-16.695313 4.28125-4.199219 10.976563-6.019531 16.679687-6.707031-.546874 5.894531-2.226562 12.824218-6.445312 16.964844zm0 0"/><path d="m120.015625 379.800781v-18.886719c9.152344-.546874 22.011719-3.113281 31.339844-12.265624 14.3125-14.046876 12.914062-36.886719 12.367187-42.1875-.171875-2.304688-1.140625-4.5625-2.902344-6.324219-1.761718-1.761719-4.015624-2.726563-6.316406-2.898438-3.484375-.308593-26.75-1.761719-41.394531 12.605469-1.128906 1.105469-2.148437 2.269531-3.09375 3.46875-.945313-1.199219-1.96875-2.367188-3.09375-3.472656-14.519531-14.242188-37.511719-12.933594-41.300781-12.613282-2.335938.15625-4.625 1.125-6.410156 2.910157-1.746094 1.746093-2.710938 3.976562-2.898438 6.261719-.539062 5.164062-2.007812 28.140624 12.363281 42.25 9.328125 9.152343 22.1875 11.71875 31.339844 12.265624v18.886719c0 5.523438 4.476563 10 10 10s10-4.476562 10-10zm7.097656-55.683593c4.28125-4.199219 10.980469-6.019532 16.679688-6.710938-.546875 5.898438-2.226563 12.828125-6.445313 16.96875-4.285156 4.203125-11.167968 5.886719-16.996094 6.4375.667969-5.742188 2.488282-12.5 6.761719-16.695312zm-44.429687 10.257812c-4.21875-4.140625-5.902344-11.070312-6.445313-16.96875 5.691407.6875 12.394531 2.511719 16.675781 6.710938 4.273438 4.191406 6.09375 10.953124 6.765626 16.695312-5.828126-.550781-12.714844-2.234375-16.996094-6.4375zm0 0"/><path d="m413.472656 379.800781v-18.886719c9.152344-.546874 22.011719-3.113281 31.339844-12.265624 14.3125-14.046876 12.914062-36.890626 12.367188-42.1875-.171876-2.304688-1.140626-4.5625-2.902344-6.324219-1.757813-1.761719-4.011719-2.726563-6.316406-2.898438-3.484376-.308593-26.75-1.761719-41.394532 12.605469-1.128906 1.105469-2.148437 2.269531-3.09375 3.46875-.945312-1.199219-1.96875-2.367188-3.09375-3.472656-14.507812-14.230469-37.472656-12.9375-41.292968-12.613282-2.125.140626-4.222657.953126-5.945313 2.46875-2.03125 1.78125-3.164063 4.207032-3.367187 6.703126-.542969 5.167968-2.011719 28.144531 12.359374 42.25 9.328126 9.152343 22.191407 11.71875 31.339844 12.265624v18.886719c0 5.523438 4.476563 10 10 10 5.523438 0 10-4.476562 10-10zm7.097656-55.683593c4.28125-4.199219 10.980469-6.019532 16.679688-6.710938-.542969 5.898438-2.226562 12.828125-6.445312 16.96875-4.28125 4.203125-11.164063 5.886719-16.996094 6.4375.667968-5.742188 2.488281-12.5 6.761718-16.695312zm-44.429687 10.257812c-4.21875-4.140625-5.898437-11.070312-6.445313-16.96875 5.695313.6875 12.394532 2.511719 16.679688 6.710938 4.273438 4.191406 6.09375 10.953124 6.761719 16.695312-5.828125-.550781-12.714844-2.234375-16.996094-6.4375zm0 0"/><path d="m105.269531 422.757812c-1.792969-2.039062-4.230469-3.175781-6.738281-3.371093-3.347656-.292969-26.75-1.785157-41.417969 12.605469-1.125 1.105468-2.148437 2.269531-3.09375 3.46875-.945312-1.199219-1.964843-2.367188-3.09375-3.472657-14.640625-14.359375-37.988281-12.902343-41.34375-12.609375-2.535156.179688-5 1.320313-6.808593 3.378906-1.46875 1.671876-2.28125 3.699219-2.453126 5.761719-.539062 5.117188-2.039062 28.144531 12.359376 42.277344 9.328124 9.152344 22.191406 11.71875 31.339843 12.265625v18.886719c0 5.523437 4.476563 10 10 10 5.523438 0 10-4.476563 10-10v-18.886719c9.152344-.546875 22.015625-3.113281 31.339844-12.265625 14.308594-14.042969 12.914063-36.867187 12.367187-42.179687-.152343-2.097657-.964843-4.160157-2.457031-5.859376zm-78.582031 33.765626c-4.21875-4.140626-5.902344-11.070313-6.445312-16.96875 5.691406.6875 12.394531 2.507812 16.679687 6.710937 4.273437 4.195313 6.09375 10.953125 6.761719 16.695313-5.828125-.550782-12.710938-2.234376-16.996094-6.4375zm54.664062 0c-4.285156 4.203124-11.167968 5.886718-16.996093 6.4375.671875-5.742188 2.488281-12.5 6.761719-16.695313 4.28125-4.199219 10.976562-6.019531 16.679687-6.707031-.542969 5.894531-2.226563 12.824218-6.445313 16.964844zm0 0"/><path d="m217.257812 422.757812c-1.789062-2.039062-4.226562-3.175781-6.738281-3.371093-3.347656-.292969-26.75-1.785157-41.417969 12.605469-1.125 1.105468-2.148437 2.269531-3.09375 3.46875-.941406-1.199219-1.964843-2.367188-3.09375-3.472657-14.640624-14.359375-37.984374-12.902343-41.34375-12.609375-2.535156.179688-5 1.320313-6.808593 3.378906-1.46875 1.671876-2.28125 3.699219-2.453125 5.761719-.535156 5.117188-2.039063 28.144531 12.359375 42.277344 9.328125 9.152344 22.191406 11.71875 31.339843 12.265625v18.886719c0 5.523437 4.476563 10 10 10 5.523438 0 10-4.476563 10-10v-18.886719c9.152344-.546875 22.015626-3.113281 31.339844-12.265625 14.308594-14.042969 12.917969-36.867187 12.371094-42.179687-.15625-2.097657-.96875-4.160157-2.460938-5.859376zm-78.578124 33.765626c-4.222657-4.140626-5.902344-11.070313-6.449219-16.96875 5.695312.6875 12.394531 2.507812 16.679687 6.710937 4.273438 4.195313 6.09375 10.953125 6.761719 16.695313-5.828125-.550782-12.710937-2.234376-16.992187-6.4375zm54.660156 0c-4.28125 4.203124-11.164063 5.886718-16.996094 6.4375.671875-5.742188 2.492188-12.5 6.761719-16.695313 4.28125-4.199219 10.976562-6.019531 16.683593-6.707031-.546874 5.894531-2.230468 12.824218-6.449218 16.964844zm0 0"/><path d="m308.199219 104.089844c1.882812 1.601562 4.1875 2.390625 6.484375 2.390625 2.828125 0 5.636718-1.195313 7.613281-3.511719 7.472656-8.769531 15.660156-17.058594 24.328125-24.644531 4.15625-3.636719 4.578125-9.953125.941406-14.109375-3.636718-4.15625-9.953125-4.578125-14.109375-.941406-9.398437 8.226562-18.273437 17.214843-26.378906 26.71875-3.582031 4.203124-3.078125 10.511718 1.121094 14.097656zm0 0"/><path d="m368.773438 59.148438c1.855468 0 3.734374-.519532 5.414062-1.601563 6.285156-4.054687 12.832031-7.847656 19.460938-11.277344 4.902343-2.539062 6.824218-8.574219 4.285156-13.476562-2.539063-4.90625-8.570313-6.824219-13.476563-4.285157-7.191406 3.71875-14.296875 7.839844-21.113281 12.238282-4.640625 2.992187-5.976562 9.179687-2.980469 13.820312 1.910157 2.964844 5.125 4.582032 8.410157 4.582032zm0 0"/><path d="m419.605469 34.128906c1.109375 0 2.238281-.1875 3.347656-.578125 4.34375-1.546875 8.792969-2.980469 13.222656-4.261719 5.304688-1.535156 8.359375-7.082031 6.824219-12.386718-1.539062-5.304688-7.082031-8.359375-12.386719-6.820313-4.808593 1.390625-9.636719 2.945313-14.355469 4.621094-5.203124 1.851563-7.925781 7.566406-6.074218 12.773437 1.453125 4.09375 5.308594 6.652344 9.421875 6.652344zm0 0"/><path d="m463.917969 22.921875c.511719 0 1.027343-.039063 1.546875-.117187 2.113281-.328126 4.269531-.632813 6.453125-.914063 5.464843-.652344 9.375-5.605469 8.738281-11.078125-.632812-5.484375-5.601562-9.417969-11.082031-8.78125l-.210938.027344c-2.320312.292968-4.664062.625-6.964843.980468-5.457032.847657-9.195313 5.957032-8.347657 11.414063.765625 4.941406 5.019531 8.46875 9.867188 8.46875zm0 0"/><path d="m501.832031 20h.144531c5.523438 0 10-4.476562 10-10s-4.476562-10-10-10h-.144531c-5.523437 0-10 4.476562-10 10s4.476563 10 10 10zm0 0"/><path d="m304.105469 238.199219c3.71875-4.082031 3.421875-10.40625-.664063-14.125-4.082031-3.714844-10.40625-3.417969-14.121094.664062-5.316406 5.835938-10.324218 12.015625-14.957031 18.429688 6.398438-15.976563 14.484375-31.261719 24.140625-45.609375 3.082032-4.582032 1.867188-10.792969-2.714844-13.878906-4.582031-3.082032-10.792968-1.867188-13.875 2.710937-3.414062 5.074219-6.644531 10.253906-9.691406 15.53125 5.441406-23.199219 14.375-45.511719 26.585938-66.105469 2.816406-4.75 1.25-10.886718-3.5-13.703125-4.75-2.816406-10.882813-1.25-13.699219 3.5-11.058594 18.652344-19.640625 38.59375-25.609375 59.3125-5.96875-20.714843-14.550781-40.660156-25.609375-59.3125-2.816406-4.75-8.949219-6.316406-13.699219-3.5-4.75 2.816407-6.316406 8.953125-3.5 13.703125 12.210938 20.59375 21.144532 42.90625 26.585938 66.105469-3.046875-5.277344-6.277344-10.460937-9.691406-15.53125-3.082032-4.578125-9.296876-5.792969-13.878907-2.710937-4.578125 3.085937-5.792969 9.296874-2.710937 13.878906 9.65625 14.347656 17.742187 29.632812 24.140625 45.609375-4.632813-6.414063-9.640625-12.59375-14.957031-18.429688-3.714844-4.082031-10.039063-4.378906-14.125-.664062-4.082032 3.71875-4.378907 10.042969-.660157 14.125 5.816407 6.386719 11.21875 13.238281 16.109375 20.355469v243.398437c0 5.519531 4.476563 9.996094 9.996094 9.996094h43.996094c5.523437 0 10-4.476563 10-9.996094v-243.398437c4.890625-7.117188 10.292968-13.96875 16.109375-20.355469zm-36.105469 253.753906h-23.996094v-179.984375h11.996094c5.523438 0 10-4.476562 10-9.996094 0-5.523437-4.476562-10-10-10h-11.996094v-26h8.808594c.023438 0 .046875.003906.074219.003906.023437 0 .050781-.003906.074219-.003906h6.082031c.023437 0 .050781.003906.074219.003906.027343 0 .050781-.003906.074218-.003906h8.808594zm0 0"/><path d="m347.445312 179.945312c-12.300781 6.410157-24.019531 14.089844-34.832031 22.828126-4.292969 3.472656-4.960937 9.769531-1.492187 14.0625 1.976562 2.445312 4.867187 3.714843 7.785156 3.714843 2.207031 0 4.425781-.726562 6.277344-2.222656 9.78125-7.90625 20.378906-14.851563 31.5-20.648437 4.898437-2.550782 6.800781-8.589844 4.246094-13.488282-2.550782-4.894531-8.585938-6.796875-13.484376-4.246094zm0 0"/><path d="m404.8125 160.058594c-7.222656 1.367187-14.453125 3.136718-21.492188 5.265625-5.285156 1.597656-8.277343 7.175781-6.679687 12.460937 1.308594 4.324219 5.277344 7.109375 9.570313 7.109375.957031 0 1.929687-.136719 2.894531-.429687 6.359375-1.921875 12.894531-3.523438 19.421875-4.757813 5.429687-1.023437 8.996094-6.253906 7.96875-11.683593-1.027344-5.425782-6.257813-8.988282-11.683594-7.964844zm0 0"/><path d="m433.882812 166.410156c0 5.523438 4.476563 10 9.996094 10 8.0625 0 16.175782.511719 24.117188 1.523438.425781.054687.851562.078125 1.273437.078125 4.960938 0 9.265625-3.6875 9.90625-8.738281.695313-5.476563-3.179687-10.484376-8.65625-11.179688-8.773437-1.117188-17.738281-1.683594-26.640625-1.683594-5.519531 0-9.996094 4.476563-9.996094 10zm0 0"/><path d="m498.253906 184.34375.800782.242188c.972656.296874 1.957031.4375 2.921874.4375 4.28125 0 8.246094-2.769532 9.558594-7.082032 1.613282-5.28125-1.359375-10.867187-6.644531-12.480468l-.867187-.265626c-5.289063-1.589843-10.867188 1.402344-12.460938 6.691407-1.589844 5.289062 1.402344 10.867187 6.691406 12.457031zm0 0"/><path d="m314.5 160.960938c1.953125 1.953124 4.507812 2.929687 7.066406 2.929687 2.5625 0 5.121094-.976563 7.074219-2.933594 10.953125-10.957031 22.996094-20.925781 35.796875-29.617187 4.566406-3.105469 5.753906-9.324219 2.652344-13.890625-3.101563-4.566407-9.320313-5.757813-13.890625-2.652344-13.835938 9.398437-26.859375 20.175781-38.703125 32.023437-3.90625 3.910157-3.902344 10.238282.003906 14.140626zm0 0"/><path d="m429.066406 89.503906c-1.78125-5.230468-7.464844-8.019531-12.691406-6.238281-9.113281 3.109375-18.160156 6.761719-26.882812 10.855469-5 2.347656-7.148438 8.300781-4.804688 13.300781 1.703125 3.625 5.300781 5.753906 9.058594 5.753906 1.421875 0 2.871094-.304687 4.242187-.953125 8.0625-3.78125 16.421875-7.15625 24.84375-10.027344 5.226563-1.785156 8.015625-7.464843 6.234375-12.691406zm0 0"/><path d="m455.90625 93.285156c.59375 0 1.199219-.054687 1.804688-.164062 5.707031-1.042969 11.535156-1.890625 17.320312-2.523438 5.488281-.597656 9.453125-5.535156 8.851562-11.023437-.601562-5.488281-5.535156-9.453125-11.027343-8.855469-6.253907.6875-12.558594 1.605469-18.730469 2.730469-5.433594.988281-9.035156 6.199219-8.042969 11.628906.878907 4.828125 5.085938 8.207031 9.824219 8.207031zm0 0"/><path d="m501.820312 89.136719h.15625c5.523438 0 10-4.476563 10-10 0-5.523438-4.476562-10-10-10h-.15625c-5.523437 0-10 4.476562-10 10 0 5.523437 4.476563 10 10 10zm0 0"/><path d="m165.375 78.324219c8.671875 7.585937 16.855469 15.875 24.332031 24.640625 1.976563 2.320312 4.785157 3.511718 7.613281 3.511718 2.292969 0 4.601563-.785156 6.480469-2.390624 4.203125-3.582032 4.707031-9.894532 1.121094-14.09375-8.101563-9.503907-16.976563-18.496094-26.375-26.71875-4.15625-3.636719-10.472656-3.214844-14.109375.941406s-3.21875 10.472656.9375 14.109375zm0 0"/><path d="m118.355469 46.265625c6.628906 3.433594 13.175781 7.226563 19.460937 11.28125 1.675782 1.082031 3.554688 1.597656 5.410156 1.597656 3.285157 0 6.5-1.613281 8.414063-4.578125 2.992187-4.640625 1.660156-10.828125-2.980469-13.824218-6.820312-4.398438-13.921875-8.515626-21.117187-12.238282-4.902344-2.535156-10.933594-.617187-13.472657 4.289063-2.539062 4.902343-.621093 10.9375 4.285157 13.472656zm0 0"/><path d="m75.828125 29.289062c4.425781 1.28125 8.875 2.714844 13.222656 4.261719 1.105469.390625 2.234375.578125 3.347657.578125 4.113281 0 7.964843-2.558594 9.421874-6.652344 1.847657-5.207031-.871093-10.921874-6.074218-12.773437-4.71875-1.675781-9.546875-3.230469-14.355469-4.621094-5.304687-1.535156-10.851563 1.515625-12.386719 6.820313-1.535156 5.304687 1.519532 10.851562 6.824219 12.386718zm0 0"/><path d="m40.113281 21.898438c2.140625.269531 4.304688.578124 6.425781.90625.519532.082031 1.035157.121093 1.542969.121093 4.84375 0 9.101563-3.53125 9.871094-8.46875.84375-5.457031-2.894531-10.566406-8.351563-11.414062-2.300781-.355469-4.644531-.6875-6.933593-.980469l-.242188-.027344c-5.484375-.632812-10.453125 3.292969-11.089843 8.78125-.632813 5.480469 3.292968 10.445313 8.777343 11.082032zm0 0"/><path d="m10.023438 20h.148437c5.519531 0 9.996094-4.476562 9.996094-10s-4.476563-10-9.996094-10h-.148437c-5.519532 0-9.9960942 4.476562-9.9960942 10s4.4765622 10 9.9960942 10zm0 0"/><path d="m199.386719 202.773438c-10.8125-8.738282-22.53125-16.417969-34.828125-22.828126-4.894532-2.554687-10.9375-.652343-13.488282 4.246094-2.550781 4.898438-.648437 10.9375 4.246094 13.488282 11.121094 5.792968 21.71875 12.742187 31.503906 20.648437 1.847657 1.492187 4.070313 2.222656 6.277344 2.222656 2.917969 0 5.808594-1.269531 7.78125-3.714843 3.472656-4.296876 2.804688-10.589844-1.492187-14.0625zm0 0"/><path d="m103.472656 179.707031c6.527344 1.234375 13.0625 2.835938 19.421875 4.757813.964844.292968 1.9375.429687 2.898438.429687 4.292969 0 8.261719-2.785156 9.566406-7.109375 1.597656-5.285156-1.394531-10.863281-6.679687-12.460937-7.035157-2.128907-14.265626-3.898438-21.492188-5.265625-5.421875-1.023438-10.65625 2.539062-11.683594 7.964844-1.023437 5.429687 2.542969 10.660156 7.96875 11.683593zm0 0"/><path d="m32.824219 169.273438c.644531 5.050781 4.945312 8.738281 9.90625 8.738281.421875 0 .847656-.023438 1.273437-.078125 7.941406-1.011719 16.054688-1.523438 24.117188-1.523438 5.523437 0 10-4.476562 10-10 0-5.523437-4.476563-10-10-10-8.902344 0-17.863282.566406-26.640625 1.683594-5.476563.695312-9.351563 5.703125-8.65625 11.179688zm0 0"/><path d="m7.980469 165.195312-.871094.265626c-5.28125 1.613281-8.257813 7.203124-6.644531 12.484374 1.316406 4.308594 5.277344 7.082032 9.558594 7.082032.96875 0 1.953124-.140625 2.925781-.4375l.796875-.242188c5.289062-1.59375 8.285156-7.171875 6.691406-12.460937-1.59375-5.289063-7.171875-8.285157-12.457031-6.691407zm0 0"/><path d="m144.910156 117.449219c-3.101562 4.566406-1.914062 10.789062 2.652344 13.890625 12.800781 8.695312 24.84375 18.660156 35.800781 29.621094 1.953125 1.953124 4.511719 2.929687 7.070313 2.929687s5.117187-.976563 7.070312-2.925781c3.902344-3.90625 3.90625-10.234375 0-14.140625-11.84375-11.851563-24.863281-22.625-38.703125-32.027344-4.566406-3.101563-10.785156-1.914063-13.890625 2.652344zm0 0"/><path d="m118.253906 113.175781c3.757813 0 7.359375-2.128906 9.058594-5.753906 2.347656-5 .195312-10.953125-4.800781-13.300781-8.726563-4.09375-17.769531-7.746094-26.882813-10.855469-5.226562-1.78125-10.910156 1.011719-12.691406 6.238281-1.785156 5.226563 1.007812 10.90625 6.234375 12.691406 8.421875 2.871094 16.78125 6.246094 24.84375 10.03125 1.371094.644532 2.816406.949219 4.238281.949219zm0 0"/><path d="m36.972656 90.597656c5.78125.632813 11.609375 1.480469 17.316406 2.523438.605469.109375 1.210938.164062 1.804688.164062 4.738281 0 8.945312-3.378906 9.828125-8.207031.992187-5.433594-2.609375-10.640625-8.042969-11.632813-6.175781-1.125-12.476562-2.042968-18.734375-2.726562-5.492187-.589844-10.425781 3.367188-11.023437 8.855469-.601563 5.488281 3.363281 10.425781 8.851562 11.023437zm0 0"/><path d="m10.023438 89.136719h.15625c5.523437 0 10-4.476563 10-10 0-5.523438-4.476563-10-10-10h-.15625c-5.519532 0-9.9960942 4.476562-9.9960942 10 0 5.523437 4.4765622 10 9.9960942 10zm0 0"/></svg>