<svg id="Icon" xmlns="http://www.w3.org/2000/svg" viewBox="0 0 64 64"><defs><style>.cls-1{fill:#77dbf2;}.cls-2{fill:#bfbfbf;}.cls-3{fill:#59a4b5;}.cls-4{fill:#b3edf9;}.cls-5{fill:#fff;}.cls-6{fill:#86d2da;}.cls-7{fill:none;stroke:#000;stroke-linecap:round;stroke-linejoin:round;stroke-width:2px;}</style></defs><title>Icon Color</title><path class="cls-1" d="M33.28,18.76,22.22,37.91c-5.07,8.79-.07,20.29,10,21.94.36.06.73.11,1.1.14a16.92,16.92,0,0,0,5.37-.34c9.59-2.17,14.11-13.26,9.2-21.78l-11-19.11a2,2,0,0,0-3.52,0"/><path class="cls-1" d="M10.7,15.4,4,27.05c-3.09,5.34,0,12.34,6,13.34.22,0,.44.07.67.09A10.16,10.16,0,0,0,14,40.27,9,9,0,0,0,19.56,27Q16.2,21.21,12.85,15.4a1.25,1.25,0,0,0-2.15,0"/><path class="cls-1" d="M51.17,4.55,44.44,16.19c-3.08,5.35,0,12.35,6.05,13.35.22,0,.45.07.67.09a10.22,10.22,0,0,0,3.27-.21A9,9,0,0,0,60,16.17L53.31,4.55a1.23,1.23,0,0,0-2.14,0"/><path class="cls-2" d="M14,40.27h0m0,0h0m0,0h0m0,0h0m0,0h0m0,0h0m5.75-12.68h0m0,0h0m0,0h0m0,0h0m0,0h0m0,0h0m0,0h0m0,0h0m0,0v0m0,0h0m0,0h0m0,0v0m0,0h0m0,0h0m0,0h0m0,0h0m0,0h0m0,0h0m0,0h0"/><path class="cls-3" d="M11.77,15s-.06,0,0,.13h0c1.93,3.34,1.86,8.55,3.79,11.89a9,9,0,0,1-3.82,12.64,8.44,8.44,0,0,0,2,.65,10.07,10.07,0,0,1-2.06.21,8.38,8.38,0,0,1-.86,0c.3,0,.6,0,.89,0A10.22,10.22,0,0,0,14,40.27h.13a8.49,8.49,0,0,0,4.16-2.39l2.17-3.75a9.06,9.06,0,0,0-.58-6.54h0l0,0h0v0h0v0h0v0h0v0h0v0h0v0h0v0h0v0h0v0h0v0h0v0h0v0h0v0h0v0h0v0h0v0h0Q16.2,21.21,12.85,15.4c.05.09,0,.13,0,.13a1.89,1.89,0,0,1-.54-.26,2.18,2.18,0,0,0-.54-.26"/><path class="cls-2" d="M39.14,22.82,39.85,24h0c-.23-.41-.47-.82-.71-1.22"/><path class="cls-3" d="M35.41,17.77l0,.15-.3.65.62-.06c3.6,6.24,4.48,13.13,8.08,19.36,4.86,8.43.47,19.4-8.93,21.71a12.79,12.79,0,0,0,1.26.27c.23,0,.47.06.7.09a17.66,17.66,0,0,1-2.06.13c-.5,0-1,0-1.49-.07.52,0,1,.07,1.56.07a16.93,16.93,0,0,0,3.76-.42,14.53,14.53,0,0,0,11.2-14.32,15,15,0,0,0-2-7.46h0L41.27,26.51A9.07,9.07,0,0,1,39.85,24l-.71-1.22L36.8,18.76h0a2,2,0,0,0-1.39-1"/><path class="cls-3" d="M34.62,17.78a2,2,0,0,0-1.34,1,1.6,1.6,0,0,1,.18-.25v.23l.51,0,.32-.47c.11-.15.22-.31.33-.44"/><path class="cls-2" d="M33.26,60h0"/><path class="cls-2" d="M54.43,29.42a10.31,10.31,0,0,1-2.29.26h0a10.31,10.31,0,0,0,2.29-.26"/><path class="cls-3" d="M52.24,3.93a1.22,1.22,0,0,0-1.07.62h0l-.93,1.61,5.78,10a9,9,0,0,1-5.59,13.25l-.26,0,.32.07c.22,0,.45.07.67.09s.66.05,1,.05a10.31,10.31,0,0,0,2.29-.26h0a8.83,8.83,0,0,0,6.81-8.71A9.11,9.11,0,0,0,60,16.17L53.31,4.55a1.24,1.24,0,0,0-1.07-.62"/><path class="cls-4" d="M11.77,14.78a1.24,1.24,0,0,0-1.07.62h0L4,27.05A9,9,0,0,0,2.76,31.6,8.79,8.79,0,0,0,10,40.39c-.11,0-.21,0-.32-.07l.25,0a8.47,8.47,0,0,0,1.78-.6A9,9,0,0,1,8,27.05l3.79-11.91-1.07.26a1.24,1.24,0,0,1,2.15,0h0a1.24,1.24,0,0,0-1.08-.62"/><path class="cls-5" d="M10.7,40.48h0"/><path class="cls-6" d="M11.74,39.67a8.47,8.47,0,0,1-1.78.6l-.25,0c.11,0,.21.06.32.07h0c.22,0,.44.07.67.09h.09a8.38,8.38,0,0,0,.86,0,10.07,10.07,0,0,0,2.06-.21,8.44,8.44,0,0,1-2-.65m0-24.89a1.24,1.24,0,0,0-1.07.62l1.07-.26c-.06-.09,0-.13,0-.13a2.18,2.18,0,0,1,.54.26,1.89,1.89,0,0,0,.54.26s.05,0,0-.13h0a1.24,1.24,0,0,0-1.08-.62"/><path class="cls-5" d="M35.13,17.39c-.15,0-.32.17-.51.39a2,2,0,0,1,.42,0,2.31,2.31,0,0,1,.37,0c-.06-.27-.16-.38-.28-.38"/><path class="cls-4" d="M35.14,18.57,34,18.69c-.16.21-.3.36-.39.36s-.11-.09-.12-.31l-.18,0h0L24.42,34.1a9,9,0,0,1-2.17,3.75l0,.06a14.79,14.79,0,0,0-2,7.48,14.46,14.46,0,0,0,12,14.46c.36.06.72.11,1.09.14l-.39-.05a17.18,17.18,0,0,0,1.77-.29l.27-.07c-9.17-2.36-13.55-13.26-8.69-21.67l8.92-19.34"/><path class="cls-6" d="M35,17.74a2,2,0,0,0-.42,0c-.11.13-.22.29-.33.44l-.32.47,1.17-.12.3-.65,0-.15a2.31,2.31,0,0,0-.37,0"/><path class="cls-6" d="M34.91,59.58l-.27.07a17.18,17.18,0,0,1-1.77.29l.39.05h.06c.5,0,1,.07,1.49.07a17.66,17.66,0,0,0,2.06-.13c-.23,0-.47,0-.7-.09a12.79,12.79,0,0,1-1.26-.27M33.46,18.51a1.6,1.6,0,0,0-.18.25h0l.18,0v-.23"/><path class="cls-7" d="M33.28,18.76,22.22,37.91c-5.07,8.79-.07,20.29,10,21.94.36.06.73.11,1.1.14a16.92,16.92,0,0,0,5.37-.34c9.59-2.17,14.11-13.26,9.2-21.78l-11-19.11A2,2,0,0,0,33.28,18.76Z"/><path class="cls-7" d="M10.7,15.4,4,27.05c-3.09,5.34,0,12.34,6,13.34.22,0,.44.07.67.09A10.16,10.16,0,0,0,14,40.27,9,9,0,0,0,19.56,27Q16.2,21.21,12.85,15.4A1.25,1.25,0,0,0,10.7,15.4Z"/><path class="cls-7" d="M51.17,4.55,44.44,16.19c-3.08,5.35,0,12.35,6.05,13.35.22,0,.45.07.67.09a10.22,10.22,0,0,0,3.27-.21A9,9,0,0,0,60,16.17L53.31,4.55A1.23,1.23,0,0,0,51.17,4.55Z"/><path class="cls-7" d="M37.81,56a10.5,10.5,0,0,0,7.34-6.12"/><path class="cls-7" d="M32.77,56.16l.86.11a13.33,13.33,0,0,0,1.79,0"/></svg>