<svg height="512pt" viewBox="-126 0 512 512" width="512pt" xmlns="http://www.w3.org/2000/svg"><g fill="#ffc943"><path d="m191.6875 374.882812c-27.417969 30.65625-23.070312 80.679688-21.082031 95.414063 18.761719-4.28125 40.535156-12.84375 55.8125-29.917969 27.949219-31.25 24.082031-81.617187 22.46875-94.921875-19.285157 3.902344-41.746094 12.152344-57.199219 29.425781zm0 0"/><path d="m191.6875 261.328125c-27.417969 30.65625-23.070312 80.679687-21.082031 95.414063 18.761719-4.28125 40.535156-12.84375 55.8125-29.917969 27.949219-31.25 24.082031-81.617188 22.46875-94.921875-19.285157 3.90625-41.746094 12.152344-57.199219 29.425781zm0 0"/><path d="m191.6875 147.84375c-27.417969 30.652344-23.070312 80.675781-21.082031 95.410156 18.761719-4.28125 40.535156-12.839844 55.8125-29.914062 27.949219-31.25 24.082031-81.621094 22.46875-94.925782-19.285157 3.90625-41.746094 12.152344-57.199219 29.429688zm0 0"/><path d="m107.367188 374.882812c-14.933594-16.695312-36.414063-24.957031-55.246094-29.019531-1.636719 13.898438-5.15625 63.578125 22.515625 94.519531 14.753906 16.484376 35.566406 25.035157 53.875 29.457032 2.011719-15.285156 5.996093-64.609375-21.144531-94.957032zm0 0"/><path d="m107.367188 261.328125c-14.933594-16.695313-36.414063-24.957031-55.246094-29.015625-1.636719 13.894531-5.15625 63.574219 22.515625 94.515625 14.753906 16.488281 35.566406 25.035156 53.875 29.457031 2.011719-15.285156 5.996093-64.609375-21.144531-94.957031zm0 0"/><path d="m107.367188 147.84375c-14.933594-16.699219-36.414063-24.960938-55.246094-29.019531-1.636719 13.894531-5.15625 63.578125 22.515625 94.515625 14.753906 16.488281 35.566406 25.039062 53.875 29.460937 2.011719-15.289062 5.996093-64.613281-21.144531-94.957031zm0 0"/></g><path d="m258.421875 227.949219c-.066406-1.085938-.3125-2.171875-.746094-3.214844-1.472656-3.546875-4.847656-5.9375-8.683593-6.148437-.742188-.039063-6-.296876-13.976563.105468 31.488281-36.722656 24.984375-93.605468 23.40625-104.226562-.070313-1.109375-.324219-2.21875-.769531-3.277344-1.488282-3.515625-4.847656-5.875-8.660156-6.085938-2.777344-.152343-68.527344-3.316406-103.757813 36.078126-6.59375 7.371093-11.53125 15.667968-15.207031 24.308593-3.675782-8.640625-8.613282-16.9375-15.207032-24.308593-35.230468-39.394532-100.976562-36.234376-103.761718-36.082032-3.808594.210938-7.160156 2.585938-8.648438 6.097656-.429687 1.015626-.679687 2.074219-.757812 3.136719-1.542969 10.28125-8.230469 67.480469 23.386718 104.359375-7.976562-.402344-13.234374-.144531-13.980468-.105468-3.832032.214843-7.199219 2.613281-8.671875 6.160156-.414063.996094-.65625 2.035156-.734375 3.074218-1.546875 10.292969-8.234375 67.558594 23.445312 104.429688-8.007812-.40625-13.289062-.148438-14.039062-.109375-3.832032.214844-7.199219 2.613281-8.671875 6.160156-.414063.996094-.65625 2.035157-.734375 3.074219-1.5625002 10.410156-8.394532 68.863281 24.53125 105.675781 28.019531 31.3125 74.941406 36.546875 93.78125 37.351563v17.597656c0 5.523438 4.476562 10 10 10 5.519531 0 10-4.476562 10-10v-17.59375c18.773437-.789062 65.828125-5.980469 93.90625-37.359375 32.792968-36.664063 26.148437-94.792969 24.550781-105.542969-.066406-1.085937-.3125-2.171875-.746094-3.214844-1.472656-3.546874-4.847656-5.9375-8.683593-6.148437-.746094-.039063-6.03125-.296875-14.039063.109375 31.558594-36.722656 25.050781-93.671875 23.46875-104.300781zm-98.277344-73.441407c22.207031-24.832031 62.070313-28.886718 79.371094-29.433593 1.394531 17.027343 1.804687 56.605469-20.546875 81.597656-22.113281 24.710937-60.914062 29.644531-77.984375 30.597656-1.769531-17.472656-3.003906-57.984375 19.160156-82.761719zm-139.601562-29.433593c17.300781.546875 57.164062 4.605469 79.371093 29.433593 22.160157 24.78125 20.925782 65.292969 19.15625 82.765626-17.046874-.953126-55.863281-5.882813-77.980468-30.601563-22.355469-24.992187-21.945313-64.566406-20.546875-81.597656zm0 113.488281c17.296875.542969 57.160156 4.601562 79.371093 29.433594 22.160157 24.777344 20.925782 65.289062 19.15625 82.761718-17.046874-.949218-55.863281-5.882812-77.980468-30.597656-22.355469-24.996094-21.945313-64.570312-20.546875-81.597656zm98.527343 225.75c-17.046874-.949219-55.863281-5.882812-77.980468-30.597656-22.355469-24.996094-21.945313-64.570313-20.546875-81.597656 17.296875.542968 57.160156 4.601562 79.371093 29.433593 22.160157 24.777344 20.925782 65.289063 19.15625 82.761719zm99.898438-30.601562c-22.113281 24.710937-60.910156 29.648437-77.984375 30.601562-1.769531-17.476562-3-57.984375 19.160156-82.761719 22.207031-24.832031 62.070313-28.890625 79.371094-29.433593 1.394531 17.027343 1.804687 56.601562-20.546875 81.59375zm0-113.554688c-22.113281 24.710938-60.910156 29.648438-77.984375 30.601562-1.769531-17.476562-3-57.984374 19.160156-82.761718 22.207031-24.832032 62.070313-28.890625 79.371094-29.433594 1.394531 17.027344 1.804687 56.601562-20.546875 81.59375zm0 0"/><path d="m129.964844 106.128906c5.523437 0 10-4.480468 10-10v-51.5c0-5.523437-4.476563-10-10-10-5.523438 0-10 4.476563-10 10v51.5c0 5.519532 4.476562 10 10 10zm0 0"/><path d="m129.964844 20.136719c5.523437 0 10-4.476563 10-10v-.136719c0-5.523438-4.476563-10-10-10-5.523438 0-10 4.476562-10 10v.136719c0 5.523437 4.476562 10 10 10zm0 0"/><path d="m81.964844 104.667969c5.523437 0 10-4.476563 10-10v-38.015625c0-5.519532-4.476563-10-10-10-5.523438 0-10 4.480468-10 10v38.011718c0 5.523438 4.476562 10.003907 10 10.003907zm0 0"/><path d="m81.964844 32.164062c5.523437 0 10-4.476562 10-10v-.136718c0-5.523438-4.476563-10-10-10-5.523438 0-10 4.476562-10 10v.136718c0 5.523438 4.476562 10 10 10zm0 0"/><path d="m177.964844 104.667969c5.523437 0 10-4.476563 10-10v-38.015625c0-5.519532-4.476563-10-10-10-5.523438 0-10 4.480468-10 10v38.011718c0 5.523438 4.476562 10.003907 10 10.003907zm0 0"/><path d="m177.964844 32.164062c5.523437 0 10-4.476562 10-10v-.136718c0-5.523438-4.476563-10-10-10-5.523438 0-10 4.476562-10 10v.136718c0 5.523438 4.476562 10 10 10zm0 0"/></svg>