<svg height="511pt" viewBox="0 -77 511.99971 511" width="511pt" xmlns="http://www.w3.org/2000/svg"><path d="m61.484375 346.527344c43.289063-.839844 107.242187-7.882813 162.113281-37.222656-6.921875-8.882813-11.054687-20.046876-11.054687-32.179688 0-15.804688 6.988281-29.972656 18.046875-39.582031l40.636718-12.457031c-9.238281-7.75-15.113281-19.371094-15.113281-32.371094 0-20.253906 14.257813-37.167969 33.28125-41.28125-3.742187-7.246094-5.871093-15.457032-5.871093-24.171875 0-29.132813 23.613281-52.746094 52.746093-52.746094 3.230469 0 6.386719.304687 9.457031.863281.140626-3.171875.246094-6.265625.324219-9.265625l-.054687-4.039062c-55.921875 2.296875-147.125 15.925781-207.8125 75.449219-60.941406 59.8125-74.550782 152.445312-76.699219 209.003906zm0 0" fill="#30995b"/><path d="m395.984375 228.90625-6.625 6.625-6.621094 6.625 89.597657 89.59375c4.675781 4.679688 11.453124 6.066406 17.429687 4.1875 1.878906-5.976562.492187-12.75-4.1875-17.429688zm0 0" fill="#ce4a30"/><path d="m225.300781 145.128906c0-59.804687 44.289063-109.25 101.859375-117.355468-5.449218-.765626-11.011718-1.171876-16.667968-1.171876-65.464844 0-118.527344 53.066407-118.527344 118.527344 0 65.464844 53.0625 118.527344 118.527344 118.527344 5.65625 0 11.21875-.402344 16.667968-1.171875-57.570312-8.101563-101.859375-57.550781-101.859375-117.355469zm0 0" fill="#fff"/><path d="m429.019531 145.128906c0-59.804687-44.292969-109.25-101.859375-117.355468-57.570312 8.105468-101.859375 57.550781-101.859375 117.355468 0 59.804688 44.289063 109.253906 101.859375 117.355469 57.566406-8.101563 101.859375-57.550781 101.859375-117.355469zm0 0" fill="#41a5a5"/><path d="m399.496094 145.128906c0 49.15625-39.847656 89.003906-89.003906 89.003906s-89.007813-39.847656-89.007813-89.003906 39.851563-89.003906 89.007813-89.003906 89.003906 39.847656 89.003906 89.003906zm0 0" fill="#fff"/><path d="m326.136719 57.503906c-5.078125-.902344-10.308594-1.378906-15.644531-1.378906-49.160157 0-89.007813 39.847656-89.007813 89.003906 0 35 20.203125 65.273438 49.582031 79.8125-9.140625-7.75-14.953125-19.308594-14.953125-32.230468 0-5.34375 1.003907-10.453126 2.8125-15.15625-3.933593-10.050782-6.105469-20.980469-6.105469-32.425782 0-43.804687 31.644532-80.214844 73.316407-87.625zm0 0" fill="#fff"/><path d="m289.394531 151.429688c-3.742187-7.242188-5.871093-15.457032-5.871093-24.167969 0-29.132813 23.613281-52.746094 52.746093-52.746094 3.230469 0 6.386719.304687 9.457031.863281.140626-3.175781.246094-6.265625.324219-9.269531l-.035156-2.605469c-6.28125-2.738281-12.941406-4.769531-19.878906-6-41.671875 7.410156-73.316407 43.820313-73.316407 87.625 0 11.445313 2.171876 22.375 6.105469 32.425782 5.054688-13.125 16.464844-23.09375 30.46875-26.125zm0 0" fill="#acd670"/><path d="m504.070312 300.015625-85.460937-85.460937c12.910156-20.035157 20.40625-43.871094 20.40625-69.425782 0-55.109375-34.867187-102.226562-83.703125-120.457031-.414062-6.5625-.867188-11.203125-1.136719-13.671875-.0625-.921875-.25-1.839844-.570312-2.734375-1.3125-3.644531-4.617188-6.207031-8.472657-6.574219-6.925781-.660156-170.679687-15.113281-265.125 77.527344-22.113281 21.703125-40.011718 49.292969-53.195312 81.992188-10.449219 25.910156-17.976562 55.085937-22.375 86.714843-6.683594 48.066407-4.050781 87.269531-3.257812 96.421875-.167969 5.089844 3.722656 9.65625 8.792968 10.261719.917969.109375 17.089844 2.015625 42.03125 2.015625 9.265625 0 19.742188-.261719 31.09375-.976562 38.820313-2.453126 95.527344-10.953126 145.214844-37.523438 2.601562-1.390625 4.453125-3.859375 5.066406-6.746094.609375-2.882812-.082031-5.894531-1.894531-8.21875-5.851563-7.511718-8.945313-16.515625-8.945313-26.035156 0-10.761719 4.085938-21.050781 11.332032-28.863281 21.410156 15.949219 47.929687 25.398437 76.617187 25.398437 25.496094 0 49.28125-7.464844 69.289063-20.320312l85.484375 85.484375c5.117187 5.117187 11.941406 7.933593 19.230469 7.933593h.136718c7.300782-.039062 14.164063-2.898437 19.320313-8.050781 5.15625-5.15625 8.015625-12.019531 8.050781-19.320312.035156-7.339844-2.78125-14.21875-7.929688-19.371094zm-479.582031-51.007813c6.628907-46.320312 24.078125-110.90625 69.53125-155.515624 45.753907-44.882813 110.464844-62.070313 156.691407-68.589844 7.433593-1.046875 14.632812-1.859375 21.523437-2.484375-52.246094 16.320312-90.269531 65.160156-90.269531 122.710937 0 4.6875.257812 9.3125.75 13.867188l-44.734375 44.734375v-75.671875c0-5.523438-4.476563-10-10-10-5.523438 0-10 4.476562-10 10v95.488281c0 .058594.007812.117187.007812.175781l-53.792969 53.792969v-35.4375c0-5.523437-4.476562-10-10-10-5.523437 0-10 4.476563-10 10v52.238281c0 .96875.144532 1.90625.40625 2.792969l-24.554687 24.550781c-.339844-17.1875.210937-43.128906 4.441406-72.652344zm9.304688 87.199219 44.652343-44.652343h70.039063c5.523437 0 10-4.476563 10-10 0-5.523438-4.476563-10.003907-10-10.003907h-50.039063l89.0625-89.0625c6.101563 20.046875 16.980469 38.03125 31.304688 52.621094-10.40625 11.4375-16.269531 26.382813-16.269531 42.011719 0 9.964844 2.300781 19.546875 6.726562 28.222656-64.222656 30.6875-139.417969 32.265625-175.476562 30.863281zm168.171875-191.078125c0-59.839844 48.683594-108.527344 108.527344-108.527344 59.839843 0 108.523437 48.6875 108.523437 108.527344 0 59.84375-48.683594 108.527344-108.523437 108.527344-59.84375 0-108.527344-48.683594-108.527344-108.527344zm204.414062 85.484375 9.679688 9.679688-10.519532 10.519531-9.683593-9.6875c3.703125-3.296875 7.21875-6.808594 10.523437-10.511719zm83.429688 93.949219c-1.40625 1.402344-3.277344 2.183594-5.273438 2.191406-.015625 0-.027344 0-.039062 0-1.945313 0-3.75-.738281-5.089844-2.074218l-59.722656-59.722657 10.519531-10.519531 59.722656 59.722656c1.347657 1.347656 2.082031 3.167969 2.074219 5.125-.007812 2-.789062 3.871094-2.191406 5.277344zm0 0"/><path d="m409.496094 145.09375c0-54.574219-44.414063-98.96875-99.003906-98.96875-54.59375 0-99.003907 44.398438-99.003907 98.96875 0 21.71875 6.90625 42.335938 19.972657 59.617188 8.976562 11.878906 20.652343 21.609374 33.824218 28.40625.984375.730468 2.0625 1.253906 3.1875 1.574218 4.382813 2.066406 8.914063 3.824219 13.558594 5.214844 5.292969 1.585938 10.863281-1.417969 12.449219-6.707031 1.582031-5.292969-1.417969-10.867188-6.710938-12.453125-3.925781-1.171875-7.703125-2.65625-11.324219-4.394532-6.582031-6.101562-10.328124-14.628906-10.328124-23.640624 0-15.074219 10.679687-28.324219 25.390624-31.503907 3.042969-.660156 5.605469-2.695312 6.929688-5.511719 1.328125-2.816406 1.269531-6.089843-.160156-8.855468-3.152344-6.101563-4.753906-12.691406-4.753906-19.578125 0-23.570313 19.175781-42.746094 42.746093-42.746094 2.523438 0 5.105469.234375 7.675781.703125 2.839844.511719 5.765626-.226562 8.023438-2.023438 1.1875-.949218 2.121094-2.152343 2.765625-3.492187 20.960937 14.214844 34.761719 38.222656 34.761719 65.390625 0 34.617188-23.144532 65.730469-56.28125 75.65625-5.292969 1.585938-8.296875 7.160156-6.710938 12.449219 1.296875 4.332031 5.269532 7.132812 9.574219 7.132812.949219 0 1.917969-.136719 2.875-.421875 19.976563-5.984375 37.9375-18.484375 50.570313-35.195312 13.066406-17.285156 19.972656-37.902344 19.972656-59.621094zm-135.972656-17.832031c0 6.140625.917968 12.273437 2.6875 18.144531-17.367188 8.191406-29.292969 25.660156-30.054688 45.308594-9.28125-13.078125-14.667969-28.9375-14.667969-45.621094 0-43.542969 35.441407-78.96875 79.003907-78.96875 3.175781 0 6.300781.210938 9.378906.578125-26.667969 7.230469-46.347656 31.632813-46.347656 60.558594zm0 0"/><path d="m310.488281 224.09375c-5.523437 0-10 4.515625-10 10.039062 0 5.523438 4.476563 10.003907 10 10.003907 5.523438 0 10-4.480469 10-10.003907v-.082031c0-5.523437-4.476562-9.957031-10-9.957031zm0 0"/><path d="m127.980469 105.707031c5.523437 0 10-4.480469 10-10v-.132812c0-5.523438-4.476563-10-10-10-5.523438 0-10 4.476562-10 10v.132812c0 5.519531 4.476562 10 10 10zm0 0"/><path d="m180.96875 271.550781h-.132812c-5.523438 0-10 4.476563-10 10 0 5.523438 4.476562 10 10 10h.132812c5.523438 0 10-4.476562 10-10 0-5.523437-4.476562-10-10-10zm0 0"/></svg>