<?xml version="1.0" encoding="utf-8"?>
<!-- Generator: Adobe Illustrator 23.0.4, SVG Export Plug-In . SVG Version: 6.00 Build 0)  -->
<svg version="1.1" id="Layer_1" xmlns="http://www.w3.org/2000/svg" xmlns:xlink="http://www.w3.org/1999/xlink" x="0px" y="0px"
	 viewBox="0 0 512 512" style="enable-background:new 0 0 512 512;" xml:space="preserve">
<style type="text/css">
	.st0{fill:#FF4545;stroke:#111111;stroke-width:10.8537;stroke-linecap:round;stroke-linejoin:round;stroke-miterlimit:10;}
	.st1{fill:#F9D162;stroke:#111111;stroke-width:10.8537;stroke-linecap:round;stroke-linejoin:round;stroke-miterlimit:10;}
	.st2{fill:#FFFFFF;stroke:#111111;stroke-width:10.8537;stroke-linecap:round;stroke-linejoin:round;stroke-miterlimit:10;}
	.st3{fill:#FCB042;stroke:#111111;stroke-width:10.8537;stroke-linecap:round;stroke-linejoin:round;stroke-miterlimit:10;}
	.st4{fill:#6DD18B;stroke:#111111;stroke-width:10.8537;stroke-linecap:round;stroke-linejoin:round;stroke-miterlimit:10;}
	.st5{fill:none;stroke:#111111;stroke-width:10.8537;stroke-linecap:round;stroke-linejoin:round;stroke-miterlimit:10;}
</style>
<g>
	<path class="st0" d="M321.1,152.9c0-9.2-4.4-17.3-11.3-22.4c1.2-8.4-1.3-17.2-7.8-23.7c-6.5-6.5-15.3-9-23.7-7.8
		c-5.1-6.8-13.2-11.3-22.4-11.3c-9.2,0-17.3,4.4-22.4,11.3c-8.4-1.2-17.2,1.3-23.7,7.8c-6.4,6.5-9,15.3-7.8,23.7
		c-6.8,5.1-11.3,13.2-11.3,22.4c0,9.2,4.5,17.3,11.3,22.4c-1.2,8.4,1.3,17.2,7.8,23.7c6.5,6.5,15.3,9,23.7,7.8
		c5.1,6.8,13.2,11.3,22.4,11.3c9.2,0,17.3-4.4,22.4-11.3c8.4,1.2,17.2-1.3,23.7-7.8c6.5-6.5,9-15.3,7.8-23.7
		C316.7,170.1,321.1,162,321.1,152.9z"/>
	<g>
		<path class="st1" d="M348.2,326.5c0,6-4.9,10.9-10.9,10.9H196.3c-6,0-10.9-4.9-10.9-10.9v-21.7c0-6,4.9-10.9,10.9-10.9h141.1
			c6,0,10.9,4.9,10.9,10.9V326.5z"/>
		<path class="st2" d="M326.5,369.9c0,6-4.9,10.9-10.9,10.9H174.6c-6,0-10.9-4.9-10.9-10.9v-21.7c0-6,4.9-10.9,10.9-10.9h141.1
			c6,0,10.9,4.9,10.9,10.9V369.9z"/>
		<path class="st3" d="M348.2,413.4c0,6-4.9,10.9-10.9,10.9H196.3c-6,0-10.9-4.9-10.9-10.9v-21.7c0-6,4.9-10.9,10.9-10.9h141.1
			c6,0,10.9,4.9,10.9,10.9V413.4z"/>
	</g>
	<path class="st4" d="M296.7,223.4c-10.5,0-19,8.5-19,19v19h19c10.5,0,19-8.5,19-19v-19C315.7,223.4,310.3,223.4,296.7,223.4z"/>
	<line class="st1" x1="190.9" y1="353.7" x2="190.9" y2="364.5"/>
	<line class="st1" x1="212.6" y1="353.7" x2="212.6" y2="364.5"/>
	<line class="st1" x1="234.3" y1="353.7" x2="234.3" y2="364.5"/>
	<line class="st1" x1="256" y1="353.7" x2="256" y2="364.5"/>
	<line class="st1" x1="277.7" y1="353.7" x2="277.7" y2="364.5"/>
	<line class="st1" x1="299.4" y1="353.7" x2="299.4" y2="364.5"/>
	<line class="st5" x1="212.6" y1="310.2" x2="212.6" y2="321.1"/>
	<line class="st5" x1="234.3" y1="310.2" x2="234.3" y2="321.1"/>
	<line class="st5" x1="256" y1="310.2" x2="256" y2="321.1"/>
	<line class="st5" x1="277.7" y1="310.2" x2="277.7" y2="321.1"/>
	<line class="st5" x1="299.4" y1="310.2" x2="299.4" y2="321.1"/>
	<line class="st5" x1="321.1" y1="310.2" x2="321.1" y2="321.1"/>
	<line class="st1" x1="212.6" y1="397.1" x2="212.6" y2="407.9"/>
	<line class="st1" x1="234.3" y1="397.1" x2="234.3" y2="407.9"/>
	<line class="st1" x1="256" y1="397.1" x2="256" y2="407.9"/>
	<line class="st1" x1="277.7" y1="397.1" x2="277.7" y2="407.9"/>
	<line class="st1" x1="299.4" y1="397.1" x2="299.4" y2="407.9"/>
	<line class="st1" x1="321.1" y1="397.1" x2="321.1" y2="407.9"/>
	<line class="st5" x1="256" y1="218" x2="256" y2="294"/>
	<circle class="st2" cx="256" cy="152.9" r="32.6"/>
	<path class="st5" d="M256,142c6,0,10.9,4.9,10.9,10.9c0,6-4.9,10.9-10.9,10.9"/>
	<line class="st5" x1="294" y1="245.1" x2="256" y2="283.1"/>
</g>
</svg>
