<?xml version="1.0" encoding="utf-8"?>
<!-- Generator: Adobe Illustrator 23.0.4, SVG Export Plug-In . SVG Version: 6.00 Build 0)  -->
<svg version="1.1" id="Layer_1" xmlns="http://www.w3.org/2000/svg" xmlns:xlink="http://www.w3.org/1999/xlink" x="0px" y="0px"
	 viewBox="0 0 512 512" style="enable-background:new 0 0 512 512;" xml:space="preserve">
<style type="text/css">
	.st0{fill:#FFFFFF;stroke:#111111;stroke-width:10.8537;stroke-linecap:round;stroke-linejoin:round;stroke-miterlimit:10;}
	.st1{fill:#F9D162;stroke:#111111;stroke-width:10.8537;stroke-linecap:round;stroke-linejoin:round;stroke-miterlimit:10;}
	.st2{fill:#77B9E5;stroke:#111111;stroke-width:10.8537;stroke-linecap:round;stroke-linejoin:round;stroke-miterlimit:10;}
	.st3{fill:#6DD18B;stroke:#111111;stroke-width:10.8537;stroke-linecap:round;stroke-linejoin:round;stroke-miterlimit:10;}
	.st4{fill:none;stroke:#111111;stroke-width:10.8537;stroke-linecap:round;stroke-linejoin:round;stroke-miterlimit:10;}
</style>
<g>
	<circle class="st0" cx="255.6" cy="174.4" r="32.6"/>
	<g>
		<path class="st1" d="M288.2,131l5.4-32.7l-21.7,5.4l-16.3-16.3l-16.3,16.3l-21.7-5.4L223,131c9.1-6.8,20.3-11,32.6-11
			C267.8,120.1,279.1,124.2,288.2,131z"/>
	</g>
	<path class="st0" d="M297.5,238.8c-2.1-5.6-8.8-10.1-14.7-10.1h-54.3c-6,0-12.6,4.6-14.7,10.1c0,0-23.2,38.7-23.2,49.6
		s6.1,13.3,10.1,14.9l7,2.8c5.5,2.2,10.5,8.9,11.1,14.8l8.8,92.4c0.6,5.9,5.9,10.8,11.9,10.8h32.6c6,0,11.3-4.9,11.9-10.8l8.8-92.4
		c0.6-5.9,5.6-12.6,11.1-14.8l7-2.8c4-1.6,10.1-4,10.1-14.9S297.5,238.8,297.5,238.8z"/>
	<circle class="st2" cx="337" cy="196.1" r="27.1"/>
	<circle class="st3" cx="174.2" cy="196.1" r="27.1"/>
	<path class="st2" d="M378.9,255c-2.1-5.6-8.8-10.1-14.7-10.1h-54.3c-2.5,0-5.2,0.9-7.5,2.2c6.8,12,18.4,33.5,18.4,41.2
		c0,10.9-6.1,13.3-10.1,14.9l-7,2.8c-5.5,2.2-10.5,8.9-11.1,14.8l-0.3,3.4c4.1,3,7.4,8.2,7.8,12.9l8.8,76.1
		c0.6,5.9,5.9,10.8,11.9,10.8h32.6c6,0,11.3-4.9,11.9-10.8l8.8-76.1c0.6-5.9,5.6-12.6,11.1-14.8l7-2.8c4-1.6,10.1-4,10.1-14.9
		S378.9,255,378.9,255z"/>
	<path class="st3" d="M218.6,320.8c-0.6-5.9-5.6-12.6-11.1-14.8l-7-2.8c-4-1.6-10.1-4-10.1-14.9c0-7.7,11.6-29.2,18.4-41.2
		c-2.4-1.4-5-2.2-7.5-2.2h-54.3c-6,0-12.6,4.6-14.7,10.1c0,0-23.2,38.7-23.2,49.6s6.1,13.3,10.1,14.9l7,2.8
		c5.5,2.2,10.5,8.9,11.1,14.8l8.8,76.1c0.6,5.9,5.9,10.8,11.9,10.8h32.6c6,0,11.3-4.9,11.9-10.8l8.8-76.1c0.5-4.7,3.7-9.9,7.8-12.9
		L218.6,320.8z"/>
	<path class="st4" d="M297.4,285.1c-1.9-4.6-5.2-11.3-9.1-18.5"/>
	<line class="st4" x1="263" y1="402.3" x2="270.9" y2="318.8"/>
	<line class="st4" x1="271.9" y1="299.2" x2="271.9" y2="299.2"/>
	<path class="st4" d="M344.6,402.3l7.8-67.2c1.3-14.1,11.5-27.7,24.7-32.9l1.8-0.7c-1.4-3.4-3.6-8-6.2-13.1"/>
	<line class="st4" x1="364.1" y1="272" x2="364.1" y2="272"/>
</g>
</svg>
