<?xml version="1.0" encoding="utf-8"?>
<!-- Generator: Adobe Illustrator 23.0.4, SVG Export Plug-In . SVG Version: 6.00 Build 0)  -->
<svg version="1.1" id="Layer_1" xmlns="http://www.w3.org/2000/svg" xmlns:xlink="http://www.w3.org/1999/xlink" x="0px" y="0px"
	 viewBox="0 0 512 512" style="enable-background:new 0 0 512 512;" xml:space="preserve">
<style type="text/css">
	.st0{fill:#6DD18B;stroke:#111111;stroke-width:10.8537;stroke-linecap:round;stroke-linejoin:round;stroke-miterlimit:10;}
	.st1{fill:#51D14E;stroke:#111111;stroke-width:10.8537;stroke-linecap:round;stroke-linejoin:round;stroke-miterlimit:10;}
	.st2{fill:none;stroke:#111111;stroke-width:10.8537;stroke-linecap:round;stroke-linejoin:round;stroke-miterlimit:10;}
	.st3{fill:#FFFFFF;stroke:#111111;stroke-width:10.8537;stroke-linecap:round;stroke-linejoin:round;stroke-miterlimit:10;}
	.st4{fill:#C68240;stroke:#111111;stroke-width:10.8537;stroke-linecap:round;stroke-linejoin:round;stroke-miterlimit:10;}
</style>
<g>
	<path class="st0" d="M223,228.8c12,0,21.7,9.7,21.7,21.7v21.7H223c-12,0-21.7-9.7-21.7-21.7v-21.7
		C201.3,228.8,207.5,228.8,223,228.8z"/>
	<path class="st1" d="M288.2,228.8c-12,0-21.7,9.7-21.7,21.7v21.7h21.7c12,0,21.7-9.7,21.7-21.7v-21.7
		C309.9,228.8,303.7,228.8,288.2,228.8z"/>
	<polyline class="st2" points="223,250.5 255.6,283.1 288.2,250.5 	"/>
	<path class="st3" d="M422.3,234l-28.3-5.1c-3.7-18.8-11-36.3-21.4-51.6l16.4-23.6c-9-11.7-19.4-22.1-31.1-31.1l-23.6,16.4
		c-15.3-10.3-32.8-17.7-51.6-21.4l-5.1-28.3c-7.2-0.9-14.5-1.5-22-1.5c-7.5,0-14.8,0.5-22,1.5l-5.1,28.3
		c-18.8,3.7-36.3,11-51.6,21.4l-23.6-16.4c-5.8,4.5-11.4,9.3-16.5,14.5l-0.1,0.1c-5.2,5.2-10,10.7-14.5,16.5l16.4,23.6
		c-10.3,15.3-17.7,32.8-21.4,51.6L88.8,234c-0.9,7.2-1.5,14.5-1.5,21.9v0.2c0,7.4,0.5,14.7,1.5,21.9l28.3,5.1
		c3.7,18.8,11,36.3,21.4,51.6l-16.4,23.6c4.5,5.8,9.3,11.4,14.5,16.5l0.1,0.1c5.2,5.2,10.7,10,16.5,14.5l23.6-16.4
		c15.3,10.3,32.8,17.7,51.6,21.4l5.1,28.3c7.2,0.9,14.5,1.5,22,1.5c7.5,0,14.8-0.5,22-1.5l5.1-28.3c18.8-3.7,36.3-11,51.6-21.4
		l23.6,16.4c11.7-9,22.1-19.4,31.1-31.1l-16.4-23.6c10.3-15.3,17.7-32.8,21.4-51.6l28.3-5.1c0.9-7.2,1.5-14.5,1.5-22
		C423.8,248.5,423.3,241.2,422.3,234z M255.6,348.2c-51,0-92.3-41.3-92.3-92.3s41.3-92.3,92.3-92.3c51,0,92.3,41.3,92.3,92.3
		S306.5,348.2,255.6,348.2z"/>
	<line class="st2" x1="255.6" y1="283.1" x2="255.6" y2="304.8"/>
	<path class="st4" d="M255.6,348.2c22.7,0,43.4-8.2,59.5-21.8c-5-6.5-12.7-10.8-21.5-10.8c-5.1,0-9.9,1.5-13.9,4
		c-4.5-8.8-13.5-14.8-24-14.8c-10.5,0-19.6,6.1-24,14.8c-4.1-2.5-8.8-4-13.9-4c-8.8,0-16.5,4.3-21.5,10.8
		C212.2,340,232.9,348.2,255.6,348.2z"/>
	<path class="st2" d="M255.6,142c62.9,0,114,51,114,114"/>
	<path class="st2" d="M255.6,369.9c-62.9,0-114-51-114-114"/>
	<line class="st2" x1="364.1" y1="283.1" x2="364.1" y2="283.1"/>
	<line class="st2" x1="147.1" y1="228.8" x2="147.1" y2="228.8"/>
</g>
</svg>
