<svg height="512pt" viewBox="0 0 512.00035 512" width="512pt" xmlns="http://www.w3.org/2000/svg"><path d="m203.132812 77.855469c-2.433593-13.773438-12.234374-24.386719-24.632812-28.507813-.105469-.949218-.1875-1.894531-.355469-2.84375-.90625-5.132812-2.671875-9.894531-5.109375-14.179687-1.46875.109375-2.941406.292969-4.421875.554687-10.113281 1.785156-18.777343 6.90625-25.144531 14-8.484375-5.390625-18.90625-7.789062-29.585938-5.898437-22.683593 4.003906-37.824218 25.640625-33.816406 48.328125.527344 2.988281 1.367188 5.84375 2.46875 8.542968l97.957032 20.582032c15.898437-6.292969 25.730468-23.085938 22.640624-40.578125zm0 0" fill="#ce4a30"/><path d="m477.472656 128.257812c-40.804687 29.714844-107.976562 73.199219-151.625 73.199219-52.289062 0-103.894531-6.769531-129.859375-52.152343l-23.960937-41.882813c-13.300782-23.25-38.097656-37.535156-64.882813-37.375-12.996093.074219-25.578125 3.238281-36.828125 8.996094l-21.097656 29.699219 11.109375 5.550781c28.160156 14.082031 49.375 39.015625 58.765625 69.066406l29.710938 95.070313c22.210937 71.082031 88.042968 119.480468 162.511718 119.480468h4.015625c42.910157 0 83.175781-14.132812 115.75-38.472656 14.707031-19.683594 25.828125-42.394531 32.269531-67.304688l38.132813-147.527343c3.621094-14.019531-12.308594-24.871094-24.011719-16.347657zm0 0" fill="#ffc943"/><path d="m211.972656 247.734375c-1.683594-6.914063-1.183594-13.601563.914063-19.5625l-.65625-.214844c-25.710938-8.449219-50.664063 14.65625-44.253907 40.949219 10.398438 42.632812 41.257813 93.628906 129.425782 93.628906 30.214844 0 54.417968-9.851562 73.726562-24.625-9.199218 2.230469-19.089844 3.457032-29.730468 3.457032-88.164063 0-119.027344-50.996094-129.425782-93.632813zm0 0" fill="#fff"/><path d="m442.894531 205.085938-71.289062 26.734374c-44.628907 16.738282-93.632813 17.746094-138.910157 2.863282l-19.808593-6.511719c-2.097657 5.960937-2.597657 12.648437-.910157 19.5625 10.394532 42.636719 41.257813 93.632813 129.425782 93.632813 10.636718 0 20.527344-1.226563 29.726562-3.453126 57.882813-44.292968 71.765625-132.828124 71.765625-132.828124zm0 0" fill="#ce4a30"/><path d="m500.839844 119.703125c-8.988282-6.109375-20.472656-5.921875-29.253906.472656-63.125 45.96875-114.878907 71.28125-145.738282 71.28125-48.933594 0-97.488281-5.707031-121.179687-47.121093l-12.03125-21.027344c15.28125-10.085938 23.628906-28.609375 20.34375-47.195313-2.621094-14.847656-12.171875-27.355469-25.496094-33.871093-6.316406-28.015626-33.703125-46.460938-62.273437-41.410157-9.371094 1.65625-17.925782 5.636719-25.121094 11.636719-9.277344-4.058594-19.542969-5.316406-29.609375-3.539062-28.078125 4.960937-46.882813 31.839843-41.925781 59.917968 1.457031 8.238282 4.910156 15.980469 9.960937 22.546875-2.042969 2.328125-3.984375 4.765625-5.796875 7.316407l-30.871094 43.457031c-1.691406 2.378906-2.257812 5.378906-1.550781 8.210937.707031 2.835938 2.617187 5.214844 5.230469 6.523438l11.105468 5.550781c25.589844 12.796875 45.160157 35.796875 53.695313 63.105469l29.710937 95.070312c11.539063 36.925782 34.109376 68.554688 65.28125 91.46875 16.65625 12.246094 34.957032 21.40625 54.292969 27.28125-.144531.675782-.226562 1.375-.226562 2.09375v32.230469l-24.726563 20.578125c-4.246094 3.535156-4.824218 9.839844-1.289062 14.082031 1.976562 2.378907 4.824218 3.605469 7.691406 3.605469 2.253906 0 4.519531-.761719 6.390625-2.316406l21.9375-18.253906 21.933594 18.253906c1.867187 1.554687 4.136719 2.316406 6.390625 2.316406 2.867187 0 5.714844-1.230469 7.691406-3.605469 3.535156-4.242187 2.957031-10.546875-1.289062-14.082031l-24.730469-20.578125v-29.53125c10.695312 1.957031 21.628906 2.953125 32.707031 2.953125h4.015625c9.078125 0 18.042969-.609375 26.851563-1.777344v28.355469l-24.726563 20.578125c-4.246094 3.535156-4.824219 9.839844-1.289063 14.082031 1.976563 2.378907 4.824219 3.605469 7.691407 3.605469 2.253906 0 4.519531-.761719 6.390625-2.316406l21.933594-18.253906 21.9375 18.253906c1.867187 1.554687 4.136718 2.316406 6.390624 2.316406 2.867188 0 5.714844-1.230469 7.691407-3.605469 3.53125-4.242187 2.957031-10.546875-1.289063-14.082031l-24.730468-20.578125v-32.027344c72.179687-17.066406 130.878906-72.792969 150.070312-147.039062l38.132812-147.527344c2.722657-10.535156-1.332031-21.289063-10.324218-27.40625zm-426.878906-91.078125c7.773437-1.371094 15.761718.222656 22.480468 4.492188 4.128906 2.621093 9.539063 1.875 12.804688-1.761719 5.160156-5.75 11.886718-9.496094 19.441406-10.828125 8.992188-1.589844 18.0625.417968 25.546875 5.652344 7.480469 5.234374 12.476563 13.070312 14.0625 22.058593.074219.417969.128906.960938.195313 1.585938l.066406.621093c.429687 3.882813 3.078125 7.160157 6.785156 8.390626 9.355469 3.113281 16.230469 11.066406 17.941406 20.757812 1.804688 10.21875-2.527344 20.398438-10.613281 26.300781l-1.96875-3.4375c-15.066406-26.335937-43.269531-42.550781-73.621094-42.410156-19.535156.113281-38.328125 6.5-53.753906 17.785156-2.550781-3.691406-4.273437-7.902343-5.082031-12.464843-3.039063-17.21875 8.496094-33.703126 25.714844-36.742188zm417.84375 113.476562-38.136719 147.527344c-20.925781 80.957032-93.941407 137.5-177.558594 137.5h-4.015625c-70.472656 0-131.945312-45.195312-152.964844-112.460937l-29.710937-95.074219c-10.144531-32.46875-33.414063-59.8125-63.839844-75.027344l-.667969-.332031 24.113282-33.941406c13.359374-18.808594 35.109374-30.117188 58.179687-30.25h.371094c23 0 44.34375 12.367187 55.773437 32.34375l23.960938 41.882812c28.832031 50.394531 86.210937 57.1875 138.539062 57.1875 44.929688 0 110.453125-40.847656 157.507813-75.113281 2.78125-2.027344 5.289062-.746094 6.238281-.101562.953125.648437 3.074219 2.515624 2.210938 5.859374zm0 0"/><path d="m108.761719 120.941406c-6.074219 0-11.019531 4.941406-11.019531 11.019532 0 6.078124 4.945312 11.023437 11.019531 11.023437 6.078125 0 11.023437-4.945313 11.023437-11.023437 0-6.078126-4.945312-11.019532-11.023437-11.019532zm0 0"/><path d="m449.210938 197.335938c-2.757813-2.25-6.5-2.859376-9.828126-1.613282l-71.289062 26.738282c-42.34375 15.878906-89.320312 16.847656-132.277344 2.726562l-20.460937-6.726562c-15.566407-5.117188-32.042969-1.535157-44.070313 9.585937-12.039062 11.132813-16.90625 27.289063-13.019531 43.226563 6.855469 28.128906 19.832031 50.957031 38.5625 67.859374 24.5625 22.164063 58.402344 33.402344 100.574219 33.402344 53.296875 0 97.15625-29.035156 126.84375-83.972656 21.839844-40.40625 28.265625-80.253906 28.527344-81.929688.550781-3.511718-.804688-7.054687-3.5625-9.296874zm-271.519532 69.199218c-2.140625-8.777344.539063-17.675781 7.167969-23.804687 4.632813-4.28125 10.464844-6.53125 16.480469-6.53125 2.582031 0 5.199218.414062 7.769531 1.257812l20.460937 6.726563c47.269532 15.539062 98.957032 14.472656 145.546876-3l38.425781-14.410156c-39.4375 32.972656-81.140625 47.199218-124.183594 42.292968-5.480469-.625-10.441406 3.3125-11.066406 8.800782-.625 5.484374 3.3125 10.441406 8.800781 11.066406 6.234375.710937 12.453125 1.066406 18.65625 1.066406 23.210938 0 46.164062-4.972656 68.453125-14.851562 16.042969-7.109376 31.800781-16.796876 47.070313-28.898438-3.746094 10.28125-8.539063 21.554688-14.621094 32.804688-1.484375 2.75-3.007813 5.410156-4.558594 8.003906-21.648438 14.46875-46.003906 23.328125-70.53125 25.613281-5.5.515625-9.542969 5.386719-9.027344 10.886719.480469 5.183594 4.839844 9.070312 9.941406 9.070312.3125 0 .625-.011718.941407-.042968 13.105469-1.222657 26.152343-4.101563 38.839843-8.492188-21.171874 18.902344-46.203124 28.441406-74.855468 28.441406-65.519532 0-105.792969-28.933594-119.710938-86zm0 0"/><path d="m261.285156 263.195312-.371094-.113281c-5.28125-1.617187-10.871093 1.351563-12.488281 6.628907-1.621093 5.28125 1.347657 10.875 6.628907 12.492187l.433593.132813c.964844.292968 1.941407.429687 2.902344.429687 4.289063 0 8.257813-2.78125 9.566406-7.101563 1.601563-5.285156-1.386719-10.867187-6.671875-12.46875zm0 0"/><path d="m303.535156 312.378906-.886718-.105468c-5.492188-.675782-10.472657 3.226562-11.144532 8.707031s3.226563 10.46875 8.707032 11.144531l1 .117188c.394531.046874.785156.070312 1.175781.070312 5 0 9.324219-3.75 9.917969-8.839844.640624-5.484375-3.285157-10.453125-8.769532-11.09375zm0 0"/></svg>