<?xml version="1.0" encoding="utf-8"?>
<!-- Generator: Adobe Illustrator 23.0.4, SVG Export Plug-In . SVG Version: 6.00 Build 0)  -->
<svg version="1.1" id="Layer_1" xmlns="http://www.w3.org/2000/svg" xmlns:xlink="http://www.w3.org/1999/xlink" x="0px" y="0px"
	 viewBox="0 0 512 512" style="enable-background:new 0 0 512 512;" xml:space="preserve">
<style type="text/css">
	.st0{fill:#FFFFFF;stroke:#111111;stroke-width:10.8537;stroke-linecap:round;stroke-linejoin:round;stroke-miterlimit:10;}
	.st1{fill:#F47171;stroke:#111111;stroke-width:10.8537;stroke-linecap:round;stroke-linejoin:round;stroke-miterlimit:10;}
	.st2{fill:#E5AA6A;stroke:#111111;stroke-width:10.8537;stroke-linecap:round;stroke-linejoin:round;stroke-miterlimit:10;}
	.st3{fill:#4BA5E2;stroke:#111111;stroke-width:10.8537;stroke-linecap:round;stroke-linejoin:round;stroke-miterlimit:10;}
	.st4{fill:none;stroke:#111111;stroke-width:10.8537;stroke-linecap:round;stroke-linejoin:round;stroke-miterlimit:10;}
	.st5{fill:#C68240;stroke:#111111;stroke-width:10.8537;stroke-linecap:round;stroke-linejoin:round;stroke-miterlimit:10;}
</style>
<g>
	<polygon class="st0" points="325.9,257 325.9,190.8 282.5,190.8 282.5,279.7 255.4,294 255.4,234.3 212,257 212,190.8 168.5,190.8 
		168.5,279.7 141.4,294 141.4,391.6 369.3,391.6 369.3,234.3 	"/>
	<g>
		<polygon class="st1" points="212,257 212,190.8 168.5,190.8 168.5,279.7 		"/>
		<polygon class="st1" points="325.9,257 325.9,190.8 282.5,190.8 282.5,279.7 		"/>
	</g>
	<rect x="369.3" y="337.4" class="st2" width="54.3" height="54.3"/>
	<rect x="87.1" y="337.4" class="st2" width="54.3" height="54.3"/>
	<rect x="239.1" y="353.7" class="st3" width="32.6" height="38"/>
	<rect x="293.4" y="353.7" class="st3" width="21.7" height="38"/>
	<rect x="195.7" y="353.7" class="st3" width="21.7" height="38"/>
	<line class="st4" x1="168.5" y1="212.6" x2="190.3" y2="212.6"/>
	<line class="st4" x1="282.5" y1="212.6" x2="304.2" y2="212.6"/>
	<line class="st4" x1="179.4" y1="158.3" x2="179.4" y2="169.1"/>
	<line class="st4" x1="201.1" y1="169.1" x2="201.1" y2="142"/>
	<line class="st4" x1="179.4" y1="136.6" x2="179.4" y2="120.3"/>
	<line class="st4" x1="201.1" y1="120.3" x2="201.1" y2="120.3"/>
	<line class="st4" x1="293.4" y1="158.3" x2="293.4" y2="169.1"/>
	<line class="st4" x1="315.1" y1="169.1" x2="315.1" y2="142"/>
	<line class="st4" x1="293.4" y1="136.6" x2="293.4" y2="120.3"/>
	<line class="st4" x1="315.1" y1="120.3" x2="315.1" y2="120.3"/>
	<line class="st4" x1="298.8" y1="294" x2="369.3" y2="256"/>
	<line class="st4" x1="195.7" y1="331.9" x2="315.1" y2="331.9"/>
	<line class="st4" x1="369.3" y1="359.1" x2="407.3" y2="359.1"/>
	<line class="st4" x1="87.1" y1="359.1" x2="125.1" y2="359.1"/>
	<line class="st4" x1="282.5" y1="304.8" x2="282.5" y2="304.8"/>
	<polygon class="st5" points="141.4,294 141.4,315.7 255.4,256 255.4,234.3 	"/>
</g>
</svg>
