<?xml version="1.0" encoding="iso-8859-1"?>
<!-- Generator: Adobe Illustrator 25.2.0, SVG Export Plug-In . SVG Version: 6.00 Build 0)  -->
<svg version="1.1" id="Layer_1" xmlns="http://www.w3.org/2000/svg" xmlns:xlink="http://www.w3.org/1999/xlink" x="0px" y="0px"
	 viewBox="0 0 2048 2048" style="enable-background:new 0 0 2048 2048;" xml:space="preserve">
<g>
	<g>
		<g id="XMLID_14_">
			<g>
				<g>
					<path style="fill:#FF624B;" d="M1524.03,508.55c9.12,27.19,6.23,57.07-8.32,81.78c-0.97,1.66-1.95,3.21-2.92,4.6
						c-15.31,22.07-40.33,44.96-67.28,65.88c-72.92,56.62-167.16,78.37-257.38,58.76c-5.95-1.29-10.54-2.48-13.18-3.49
						c1.64-2.94,3.25-5.87,4.83-8.79c26.27-48.52,59.85-92.69,99.44-131.12c24.98-24.24,51.87-50.56,70.48-69.47
						c26.35-26.74,56.05-49.86,90.88-63.37c23.27-9.01,38.03-21.37,48.13-42.07h0.01C1495.47,423.1,1512.38,473.82,1524.03,508.55z"
						/>
				</g>
				<g>
					<path style="fill:#F5C84C;" d="M1698.82,369.8l69.18,40.58l-67.87,22.08c0,0-10.44,21.08-16.5,32.87
						c-14.33,27.93-24.72,54.87-18.69,87.94c2.77,15.14,4.42,30.53,5.9,45.87c8.2,85.04-30.99,175.88-117.72,213.12
						c-34.67,14.88-71.14,22.08-108.32,23.53c-3.88,0.15-7.75,0.27-11.63,0.35c-43.67,0.9-86.86-3.31-126.71-25.07
						c-9.7-5.31-18.44-2.51-26.76,4.46c-16.22,13.59-33.41,25.91-51.89,36.36c-64.73,36.59-133.08,57.46-208.38,47.8
						c-19.69-2.52-37.44-9.98-52.3-23.44c-6.66-6.03-11.34-13.31-8.37-22.76c2.66-8.54,9.38-12.38,17.93-13.9
						c16.31-2.9,32.66-5.69,48.83-9.26c32.3-7.14,80.26-21.26,115.87-61.96c11.11-13.99,22.86-33.09,33.56-52.29
						c2.64,1.01,7.23,2.2,13.18,3.49c90.22,19.61,184.46-2.14,257.38-58.76c26.95-20.92,51.97-43.81,67.28-65.88
						c0.97-1.39,1.95-2.94,2.92-4.6c14.55-24.71,17.44-54.59,8.32-81.78c-11.65-34.73-28.56-85.45-35.31-107.29h-0.01
						c2.13-4.34,4.04-9.05,5.79-14.18c15.98-46.84,51.37-76,102.43-82.52c0.76-0.11,1.53-0.19,2.31-0.29
						C1645.68,299.06,1686.04,328.7,1698.82,369.8z"/>
				</g>
				<g>
					<path style="fill:#53C13A;" d="M547.94,618.34c-3.71,5.47-8.09,10.51-13.05,14.95c-18.71,16.86-44.22,24.6-68.97,19.86
						c-20.65-3.96-39.45-14.41-56.46-31.52c-20.67-20.79-36.3-45.39-52.96-69.21c-20.35-29.1-41.19-57.74-71.58-77.56
						c-0.05-0.04-0.1-0.07-0.15-0.1c-7.01-4.56-6.13-15.03,1.53-18.37c27.32-11.94,55.53-17.81,85.02-18.7
						c52-1.58,100.86,9.23,144.07,39.29c42.55,29.6,57.49,70.85,43.54,117.71C556.56,603.14,552.83,611.12,547.94,618.34z"/>
				</g>
				<g>
					<path style="fill:#53C13A;" d="M674.02,690.06c-2.17-4.42-3.94-9.05-5.28-13.83c-13.96-46.86,0.98-88.11,43.53-117.71
						c43.22-30.06,92.08-40.87,144.07-39.29c29.5,0.9,57.7,6.76,85.02,18.7c7.66,3.34,8.54,13.81,1.54,18.37
						c-0.05,0.03-0.1,0.07-0.15,0.1c-30.39,19.82-51.23,48.46-71.59,77.56c-16.66,23.82-32.29,48.42-52.95,69.21
						c-17.01,17.11-35.81,27.56-56.47,31.52c-24.74,4.74-50.25-3-68.97-19.86C684.97,707.83,678.6,699.4,674.02,690.06z"/>
				</g>
				<g>
					<path style="fill:#A3E2FB;" d="M1661.99,1373.01v0.02c-82.96,144.13-213.08,257.67-369.29,319.54l-0.01,0.01h-0.01
						l-152.19-98.48c-47.73-30.89-76.82-83.64-77.48-140.48c-0.52-44.65-18.3-85.27-47.08-115.34
						c-28.79-30.08-68.6-49.62-113.17-52.09c-3.87-0.22-7.74-0.32-11.6-0.32c-60.67,0-118.59,26.46-158.31,72.83
						c-13.72,18.67-34.28,27.74-54.74,27.74c-23.99,0-47.85-12.49-60.44-36.59c-9.3-17.85-14.1-37.61-14.1-57.55
						c0-7.19,0.62-14.37,1.87-21.51l8.17-46.64c11.66-66.45-45.36-124.71-112.04-114.54c-21.7,3.32-40.99,13.61-55.58,28.5
						s-24.47,34.41-27.32,56.17l-26.42,201.35h-0.01c-70.8-113.48-111.72-247.52-111.72-391.13h304.66h109.41
						c5.24,6.26,11.55,11.65,18.85,15.83c16.66,9.52,29.08,26.14,34.35,46l1.88,7.07c7.32,27.59,28.17,48.24,53.85,53.33l69.8,13.85
						c42.39,8.41,84.44-16.55,101.4-60.17c1.83-4.71,2.7-9.59,2.7-14.37c0-16.05-9.71-31.03-24.86-35.36
						c-12.75-3.64-20.97-14.16-23.77-26.18H1241c-26.13,36.1-38.87,78.27-38.87,120.17c0,63.03,28.77,125.48,84.02,166.05
						c7.04,5.15,13.9,10.19,20.53,15.03c39.14,28.53,94.77,10.28,109.32-35.91c0.15-0.48,0.3-0.97,0.46-1.46
						c18.83-60.23,97.04-75.49,137.19-26.79L1661.99,1373.01z"/>
				</g>
				<g>
					<path style="fill:#53C13A;" d="M392.25,1395.63l26.42-201.35c2.85-21.76,12.73-41.28,27.32-56.17s33.88-25.18,55.58-28.5
						c66.68-10.17,123.7,48.09,112.04,114.54l-8.17,46.64c-1.25,7.14-1.87,14.32-1.87,21.51c0,19.94,4.8,39.7,14.1,57.55
						c12.59,24.1,36.45,36.59,60.44,36.59c20.46,0,41.02-9.07,54.74-27.74c39.72-46.37,97.64-72.83,158.31-72.83
						c3.86,0,7.73,0.1,11.6,0.32c44.57,2.47,84.38,22.01,113.17,52.09c28.78,30.07,46.56,70.69,47.08,115.34
						c0.66,56.84,29.75,109.59,77.48,140.48l152.19,98.48c-84.28,33.39-176.18,51.74-272.34,51.74
						c-264.98,0-497.43-139.31-628.1-348.68v-0.01H392.25z"/>
				</g>
				<g>
					<path style="fill:#53C13A;" d="M977.42,1066.04c0,4.78-0.87,9.66-2.7,14.37c-16.96,43.62-59.01,68.58-101.4,60.17l-69.8-13.85
						c-25.68-5.09-46.53-25.74-53.85-53.33l-1.88-7.07c-5.27-19.86-17.69-36.48-34.35-46c-7.3-4.18-13.61-9.57-18.85-15.83h234.2
						c2.8,12.02,11.02,22.54,23.77,26.18C967.71,1035.01,977.42,1049.99,977.42,1066.04z"/>
				</g>
				<g>
					<path style="fill:#53C13A;" d="M1496.09,1004.5h264.08c0,134.19-35.72,260.02-98.18,368.51l-108.34-131.42
						c-40.15-48.7-118.36-33.44-137.19,26.79c-0.16,0.49-0.31,0.98-0.46,1.46c-14.55,46.19-70.18,64.44-109.32,35.91
						c-6.63-4.84-13.49-9.88-20.53-15.03c-55.25-40.57-84.02-103.02-84.02-166.05c0-41.9,12.74-84.07,38.87-120.17H1496.09z"/>
				</g>
			</g>
			<g>
				<g>
					<path style="fill:#333333;" d="M1254.196,750.68c-23.702,0-47.544-2.524-71.164-7.658c-7.594-1.646-12.891-3.085-16.657-4.526
						c-12.38-4.736-18.576-18.611-13.841-30.991s18.61-18.577,30.991-13.841c0.086,0.033,2.27,0.842,9.689,2.451
						c83.271,18.101,169.857-1.679,237.576-54.261c29.101-22.589,50.053-42.978,62.279-60.603c0.619-0.888,1.252-1.889,1.916-3.025
						c10.987-18.661,13.265-41.248,6.29-62.043c-12.515-37.306-28.83-86.298-35.486-107.835
						c-3.914-12.664,3.179-26.103,15.843-30.017c12.669-3.916,26.103,3.18,30.017,15.843c6.517,21.084,22.703,69.686,35.135,106.744
						c11.399,33.986,7.611,71.014-10.393,101.591c-1.269,2.171-2.601,4.266-3.918,6.153c-14.973,21.585-39.293,45.526-72.247,71.107
						C1400.445,726.187,1328.02,750.679,1254.196,750.68z"/>
				</g>
				<g>
					<path style="fill:#333333;" d="M1496.081,1028.5c-5.681,0-11.382-2.005-15.957-6.081l-65.109-58.01
						c-5.11-4.554-8.034-11.074-8.034-17.919v-1.56c0-0.161,0.002-0.322,0.005-0.483l2.188-108.742
						c0.232-13.054,10.887-23.57,23.996-23.57c13.255,0,24,10.74,24,23.995c0,0.161-0.002,0.332-0.005,0.493l-1.998,99.272
						l56.889,50.685c9.896,8.817,10.771,23.988,1.953,33.885C1509.268,1025.787,1502.688,1028.5,1496.081,1028.5z"/>
				</g>
				<g>
					<path style="fill:#333333;" d="M1055.97,926.037c-13.211,0-26.395-0.849-39.593-2.542
						c-25.372-3.248-47.364-13.159-65.358-29.457c-20.427-18.495-18.263-37.852-15.154-47.743
						c2.922-9.383,11.593-25.884,36.625-30.334l6.183-1.096c13.783-2.438,28.035-4.959,41.673-7.97
						c29.387-6.496,71.945-19.151,102.606-53.901c8.945-11.347,19.384-27.693,31.034-48.597c1.593-2.857,3.154-5.698,4.687-8.529
						c27.358-50.532,62.292-96.596,103.83-136.918c30.982-30.063,54.563-53.306,70.092-69.083
						c32.624-33.107,65.104-55.645,99.307-68.912c18.188-7.042,28.064-15.514,35.239-30.218c1.673-3.409,3.185-7.124,4.645-11.405
						c19.071-55.897,62.365-90.892,121.927-98.555c0.598-0.084,1.2-0.158,1.807-0.23l0.668-0.082
						c0.126-0.016,0.252-0.031,0.378-0.045c52.538-5.891,102.298,24.465,121.904,73.082l61.675,36.177
						c8.148,4.78,12.734,13.896,11.717,23.288c-1.019,9.392-7.452,17.313-16.436,20.236l-58.288,18.963
						c-3.589,7.201-8.585,17.178-12.162,24.137c-13.513,26.337-20.978,47.687-16.424,72.662c3.047,16.654,4.786,33.443,6.179,47.872
						c4.599,47.692-4.573,96.63-25.825,137.798c-23.442,45.412-60.205,79.88-106.315,99.679
						c-35.545,15.255-74.858,23.821-116.854,25.459c-4.27,0.165-8.215,0.283-12.07,0.363c-38.826,0.795-89.414-1.595-137.257-27.217
						c-0.358,0.255-0.791,0.585-1.295,1.008c-18.468,15.474-36.619,28.184-55.49,38.854
						C1176.51,908.458,1116.053,926.035,1055.97,926.037z M987.528,862.043c9.824,7.554,21.312,12.095,34.949,13.841
						c63.455,8.14,124.947-6.123,193.522-44.887c16.292-9.212,32.088-20.29,48.287-33.863c22.936-19.215,43.487-12.705,53.698-7.116
						c38.305,20.917,81.412,22.816,114.691,22.127c3.564-0.073,7.228-0.184,11.197-0.337c36.089-1.408,69.663-8.676,99.781-21.603
						c80.592-34.604,109.952-119.739,103.297-188.761c-1.298-13.448-2.908-29.037-5.619-43.855
						c-7.377-40.458,5.707-73.516,20.944-103.214c5.916-11.509,16.243-32.356,16.347-32.565c2.865-5.787,7.941-10.174,14.082-12.172
						l17.107-5.565l-22.692-13.311c-1.217-0.68-2.368-1.463-3.442-2.337c-1.48-1.2-2.787-2.553-3.911-4.021
						c-1.851-2.408-3.253-5.175-4.087-8.18c-10.169-31.55-41.033-51.739-73.688-48.111l-0.79,0.097
						c-0.283,0.034-0.563,0.064-0.841,0.104c-0.13,0.019-0.261,0.037-0.391,0.053c-41.682,5.323-69.525,27.684-82.755,66.463
						c-2.126,6.231-4.402,11.794-6.96,17.004c-12.578,25.781-31.401,42.413-61.009,53.877
						c-27.729,10.755-54.702,29.674-82.451,57.834c-15.774,16.029-39.62,39.533-70.862,69.849
						c-38.034,36.92-70.014,79.086-95.047,125.323c-1.626,3.004-3.285,6.024-4.975,9.053
						c-13.066,23.445-25.088,42.129-35.728,55.526c-0.236,0.298-0.48,0.591-0.731,0.877
						c-39.989,45.706-92.633,61.607-128.753,69.591C1016.234,856.958,1001.647,859.546,987.528,862.043z"/>
				</g>
				<g>
					<path style="fill:#333333;" d="M1661.968,1397.014c-4.062,0-8.179-1.032-11.952-3.205
						c-11.487-6.613-15.438-21.286-8.824-32.773c62.136-107.927,94.979-231.215,94.979-356.535c0-13.255,10.745-24,24-24
						s24,10.745,24,24c0,67.897-8.917,135.244-26.502,200.167c-17.059,62.979-42.251,123.646-74.879,180.317
						C1678.349,1392.698,1670.272,1397.014,1661.968,1397.014z"/>
				</g>
				<g>
					<path style="fill:#333333;" d="M1292.693,1716.573c-6.143,0-12.283-2.343-16.969-7.027c-9.372-9.373-9.377-24.563-0.005-33.937
						l0.01-0.01c2.317-2.317,5.086-4.136,8.133-5.343c149.812-59.336,276.714-169.146,357.327-309.199
						c6.613-11.487,21.285-15.438,32.773-8.828c11.487,6.612,15.44,21.285,8.828,32.773
						c-42.76,74.288-97.35,140.493-162.253,196.776c-65.161,56.507-138.656,101.214-218.466,132.893
						C1299.082,1715.939,1295.888,1716.573,1292.693,1716.573z"/>
				</g>
				<g>
					<path style="fill:#333333;" d="M1020.34,1768.32c-67.043,0-133.577-8.698-197.751-25.853
						c-62.262-16.644-122.319-41.237-178.503-73.097c-110.67-62.759-204.797-153.02-272.205-261.024
						c-0.09-0.145-0.179-0.29-0.266-0.436C296.316,1287.047,256.52,1147.563,256.52,1004.5c0-13.255,10.745-24,24-24
						s24,10.745,24,24c0,134.237,37.374,265.095,108.082,378.426c0.085,0.137,0.169,0.274,0.251,0.412
						c131.886,211.029,358.941,336.982,607.486,336.982c91.013,0,179.667-16.84,263.5-50.053
						c12.324-4.884,26.271,1.15,31.152,13.473c4.883,12.323-1.149,26.271-13.473,31.152
						C1212.035,1750.345,1117.433,1768.32,1020.34,1768.32z"/>
				</g>
				<g>
					<path style="fill:#333333;" d="M1661.99,1397.02c-7.726,0-14.599-3.646-18.988-9.313l-107.87-130.85
						c-13.17-15.975-33.172-23.136-53.497-19.16c-20.3,3.972-36.102,18.12-42.269,37.845c-0.03,0.098-0.062,0.195-0.093,0.292
						c-0.079,0.241-0.153,0.482-0.228,0.721l-0.146,0.469c-9.288,29.485-31.443,51.918-60.794,61.576
						c-29.384,9.667-60.571,4.764-85.563-13.454c-3.951-2.885-7.97-5.829-12.058-8.825l-8.506-6.229
						c-30.129-22.123-53.695-50.157-70.079-83.35c-15.551-31.504-23.771-66.799-23.771-102.07c0-48.57,15.018-94.991,43.429-134.242
						c7.772-10.737,22.778-13.14,33.514-5.369c10.737,7.772,13.141,22.776,5.369,33.514
						c-22.446,31.012-34.312,67.699-34.312,106.098c0,58.596,27.054,112.067,74.226,146.705l8.503,6.228
						c4.064,2.979,8.059,5.906,11.972,8.763c12.338,8.993,27.749,11.415,42.273,6.638c14.49-4.768,25.427-15.839,30.005-30.374
						l0.104-0.332c0.125-0.402,0.252-0.809,0.383-1.215c5.823-18.539,16.511-34.896,30.915-47.312
						c13.554-11.685,30.12-19.699,47.906-23.18c17.798-3.482,36.178-2.3,53.155,3.422c18.08,6.094,34.193,17.267,46.596,32.312
						l108.341,131.42c3.544,4.299,5.481,9.696,5.481,15.267C1685.99,1386.265,1675.245,1397.02,1661.99,1397.02z"/>
				</g>
				<g>
					<path style="fill:#333333;" d="M1292.69,1716.58c-4.626,0-9.165-1.337-13.049-3.851l-152.189-98.48
						c-54.624-35.351-87.686-95.294-88.44-160.351c-0.432-37.074-14.786-72.241-40.42-99.023
						c-25.639-26.788-60.145-42.67-97.16-44.722c-3.312-0.188-6.755-0.283-10.271-0.283c-53.677,0-104.495,23.254-139.559,63.834
						c-17.54,23.36-44.268,36.736-73.492,36.736c-34.459,0-65.77-18.959-81.712-49.479c-11.013-21.138-16.828-44.873-16.828-68.662
						c0-8.568,0.75-17.198,2.229-25.648l8.17-46.643c4.205-23.961-3.138-47.673-20.145-65.064
						c-17.017-17.401-40.573-25.279-64.636-21.608c-16.095,2.462-30.642,9.922-42.056,21.571
						c-11.404,11.638-18.55,26.33-20.666,42.49l-26.421,201.354c-1.724,13.144-13.782,22.406-26.918,20.674
						c-13.142-1.725-22.398-13.776-20.673-26.918l26.42-201.35c3.479-26.56,15.227-50.713,33.974-69.846
						c18.743-19.128,42.635-31.379,69.093-35.426c39.541-6.035,78.245,6.908,106.202,35.498
						c27.947,28.579,40.013,67.547,33.105,106.913l-8.168,46.633c-1.002,5.724-1.51,11.567-1.51,17.369
						c0,16.1,3.937,32.165,11.385,46.461c7.741,14.818,22.383,23.68,39.155,23.68c14.113,0,27.017-6.544,35.401-17.952
						c0.353-0.48,0.724-0.948,1.112-1.401c44.212-51.614,108.557-81.217,176.537-81.217c4.424,0,8.787,0.121,12.966,0.359
						c49.177,2.725,95.054,23.841,129.142,59.456c34.081,35.608,53.166,82.364,53.739,131.655
						c0.568,48.934,25.437,94.021,66.522,120.61l151.815,98.238c6.808,4.236,11.339,11.784,11.339,20.391
						C1316.685,1705.835,1305.945,1716.58,1292.69,1716.58z"/>
				</g>
				<g>
					<path style="fill:#333333;" d="M889.619,1166.18c-7.005,0.001-14.023-0.681-20.97-2.059l-69.8-13.85
						c-34.904-6.919-62.639-34.017-72.376-70.716l-1.877-7.059c-3.609-13.601-12.014-25.016-23.062-31.329
						c-9.625-5.512-18.146-12.661-25.346-21.262c-8.508-10.164-7.167-25.3,2.997-33.809s25.3-7.166,33.809,2.997
						c3.546,4.235,7.708,7.738,12.374,10.409c22.107,12.632,38.743,34.75,45.621,60.672l1.877,7.059
						c4.927,18.569,18.791,32.678,35.323,35.955l69.804,13.851c31.009,6.152,61.592-12.485,74.361-45.326
						c0.708-1.822,1.068-3.733,1.068-5.673c0-5.788-3.205-11.069-7.456-12.284c-20.351-5.81-35.512-22.188-40.548-43.812
						c-3.007-12.909,5.021-25.812,17.93-28.819c12.907-3.005,25.812,5.021,28.818,17.93c0.492,2.111,2.156,7.168,6.984,8.546
						c24.892,7.115,42.272,31.145,42.272,58.438c0,7.908-1.456,15.667-4.328,23.061c-10.141,26.081-28.354,47.936-51.287,61.545
						C928.552,1160.884,909.15,1166.18,889.619,1166.18z"/>
				</g>
				<g>
					<path style="fill:#333333;" d="M1760.17,1028.5H280.52c-13.255,0-24-10.745-24-24s10.745-24,24-24h1479.65
						c13.255,0,24,10.745,24,24S1773.425,1028.5,1760.17,1028.5z"/>
				</g>
				<g>
					<path style="fill:#333333;" d="M747.417,760.041c-25.583,0.001-51.01-9.65-70.677-27.349l0,0
						c-10.126-9.088-18.291-19.876-24.268-32.065c-2.78-5.663-5.064-11.629-6.787-17.727c-8.421-28.387-8.05-55.397,1.104-80.283
						c9.113-24.773,26.532-46.238,51.775-63.799c44.861-31.201,96.7-45.455,158.504-43.577c33.67,1.027,64.385,7.797,93.902,20.698
						c11.629,5.07,19.521,16.083,20.574,28.733c1.046,12.562-4.827,24.647-15.338,31.602c-0.134,0.09-0.268,0.178-0.401,0.265
						c-25.884,16.9-43.998,41.188-64.981,71.18c-2.795,3.997-5.563,8.019-8.331,12.041c-14.056,20.422-28.59,41.54-47.26,60.328
						c-20.337,20.456-43.542,33.298-68.976,38.173C760.026,759.455,753.714,760.04,747.417,760.041z M846.55,543.08
						c-47.11,0-86.628,11.533-120.576,35.144c-33.741,23.472-45.259,54.142-34.232,91.154c0.037,0.125,0.073,0.25,0.108,0.375
						c0.939,3.35,2.188,6.624,3.714,9.731c3.259,6.647,7.711,12.527,13.236,17.485c0.011,0.01,0.021,0.019,0.032,0.028
						c13.412,12.079,31.501,17.358,48.393,14.122c15.995-3.066,30.377-11.201,43.965-24.87c15.623-15.721,28.32-34.17,41.764-53.703
						c2.837-4.122,5.673-8.243,8.54-12.341c18.071-25.829,35.353-49.258,57.744-68.546c-16.99-5.084-34.709-7.862-53.629-8.439
						C852.559,543.126,849.537,543.08,846.55,543.08z"/>
				</g>
				<g>
					<path style="fill:#333333;" d="M585.157,789.063c-4.325,0-8.702-1.168-12.645-3.619c-11.258-6.997-14.713-21.794-7.716-33.052
						c23.534-37.868,57.423-58.682,96.664-82.783l1.928-1.183c29.486-18.094,66.183-40.613,109.925-75.549
						c10.356-8.273,25.458-6.582,33.73,3.775c8.272,10.357,6.582,25.458-3.775,33.73c-46.062,36.79-84.162,60.169-114.775,78.955
						l-1.918,1.177c-40.528,24.892-64.276,40.288-81.01,67.213C601.019,785.042,593.179,789.063,585.157,789.063z"/>
				</g>
				<g>
					<path style="fill:#333333;" d="M480.249,678.5c-6.301,0-12.607-0.584-18.844-1.779c-25.432-4.877-48.634-17.719-68.965-38.171
						c-18.685-18.794-33.225-39.919-47.285-60.348c-2.764-4.017-5.528-8.033-8.322-12.027
						c-20.984-30.007-39.096-54.303-65.024-71.213c-0.09-0.059-0.18-0.118-0.269-0.178c-10.562-6.944-16.469-19.052-15.425-31.644
						c1.049-12.653,8.94-23.669,20.592-28.75c29.525-12.904,60.243-19.674,93.888-20.69c61.803-1.874,113.65,12.376,158.5,43.578
						c25.242,17.56,42.662,39.024,51.775,63.798c9.155,24.885,9.529,51.897,1.113,80.285c-3.059,10.827-7.827,21.067-14.174,30.438
						c-4.844,7.142-10.521,13.646-16.883,19.346C531.27,668.847,505.837,678.5,480.249,678.5z M318.429,470.114
						c22.404,19.295,39.676,42.723,57.739,68.552c2.862,4.092,5.695,8.208,8.527,12.323c13.447,19.538,26.148,37.992,41.784,53.719
						c13.589,13.669,27.969,21.804,43.96,24.871c16.893,3.237,34.983-2.042,48.384-14.119c0.02-0.018,0.039-0.035,0.059-0.053
						c3.457-3.094,6.55-6.64,9.194-10.54c3.476-5.132,6.085-10.742,7.745-16.66c0.035-0.122,0.07-0.245,0.106-0.366
						c11.02-37.017-0.501-67.688-34.243-91.161c-36.091-25.107-78.5-36.56-129.636-35.003
						C353.139,462.25,335.421,465.027,318.429,470.114z M272.291,495.26c0.014,0.009,0.028,0.017,0.042,0.026
						C272.318,495.277,272.305,495.269,272.291,495.26z M269.917,493.593c0.003,0.002,0.007,0.005,0.01,0.008
						C269.924,493.598,269.92,493.595,269.917,493.593z M269.882,493.565c0.008,0.006,0.016,0.013,0.024,0.019
						C269.898,493.578,269.891,493.571,269.882,493.565z"/>
				</g>
				<g>
					<path style="fill:#333333;" d="M585.18,1028.729c-13.255,0-24-10.745-24-24v-312.6c0-20.089-8.881-38.981-24.366-51.831
						l-0.168-0.14c-1.422-1.179-2.789-2.312-4.099-3.407c-4.934-4.102-9.173-7.636-13.034-10.856
						c-21.507-17.933-31.323-26.117-95.11-77.064c-10.357-8.272-12.047-23.374-3.775-33.73c8.272-10.357,23.374-12.047,33.731-3.775
						c64.183,51.263,74.12,59.549,95.894,77.704c3.845,3.207,8.067,6.726,13.031,10.853c1.311,1.095,2.625,2.184,3.992,3.317
						l0.18,0.149c26.521,22.008,41.726,54.363,41.726,88.779v312.6C609.18,1017.985,598.435,1028.729,585.18,1028.729z"/>
				</g>
			</g>
		</g>
	</g>
</g>
</svg>
