<?xml version="1.0" encoding="utf-8"?>
<!-- Generator: Adobe Illustrator 23.0.4, SVG Export Plug-In . SVG Version: 6.00 Build 0)  -->
<svg version="1.1" id="Layer_1" xmlns="http://www.w3.org/2000/svg" xmlns:xlink="http://www.w3.org/1999/xlink" x="0px" y="0px"
	 viewBox="0 0 512 512" style="enable-background:new 0 0 512 512;" xml:space="preserve">
<style type="text/css">
	.st0{fill:#FFFFFF;stroke:#111111;stroke-width:10.8537;stroke-linecap:round;stroke-linejoin:round;stroke-miterlimit:10;}
	.st1{fill:none;stroke:#111111;stroke-width:10.8537;stroke-linecap:round;stroke-linejoin:round;stroke-miterlimit:10;}
	.st2{fill:#77B9E5;stroke:#111111;stroke-width:10.8537;stroke-linecap:round;stroke-linejoin:round;stroke-miterlimit:10;}
	.st3{fill:#EA83ED;stroke:#111111;stroke-width:10.8537;stroke-linecap:round;stroke-linejoin:round;stroke-miterlimit:10;}
</style>
<g>
	<path class="st0" d="M212,120.1C143,120.1,87.1,176,87.1,244.9c0,32.2,12.2,61.5,32.1,83.6l-15.9,41.2l40.5-20.2
		c19.6,12.8,43,20.2,68.1,20.2c68.9,0,124.8-55.9,124.8-124.8S280.9,120.1,212,120.1z"/>
	<path class="st1" d="M108.9,244.9c0-56.9,46.3-103.1,103.1-103.1"/>
	<path class="st2" d="M423.6,266.6c0-68.9-55.9-124.8-124.8-124.8c-5.1,0-10.2,0.3-15.2,0.9c32.1,22.6,53.2,59.9,53.2,102.2
		c0,63.8-47.9,116.4-109.7,123.9c20.3,14.3,45,22.7,71.7,22.7c25.1,0,48.5-7.5,68.1-20.2l40.5,20.2l-15.9-41.2
		C411.4,328.1,423.6,298.8,423.6,266.6z"/>
	<path class="st1" d="M338.8,171.6c37.1,15.6,63.1,52.4,63.1,95"/>
	<line class="st1" x1="396.5" y1="288.3" x2="396.5" y2="288.3"/>
	<line class="st1" x1="239.1" y1="147.2" x2="239.1" y2="147.2"/>
	<g>
		<path class="st3" d="M212,282.9c-6,0-10.9-4.9-10.9-10.9v-5.4c0-15,10.2-24.4,18.5-31.9c8.7-8,14.1-13.3,14.1-22.4
			c0-12-9.7-21.7-21.7-21.7c-12,0-21.7,9.7-21.7,21.7c0,6-4.9,10.9-10.9,10.9c-6,0-10.9-4.9-10.9-10.9c0-23.9,19.5-43.4,43.4-43.4
			c23.9,0,43.4,19.5,43.4,43.4c0,19.1-12.2,30.3-21.2,38.4c-7.3,6.6-11.4,10.6-11.4,15.8v5.4C222.8,278,218,282.9,212,282.9z"/>
		<circle class="st3" cx="212" cy="315.5" r="10.9"/>
	</g>
</g>
</svg>
